<?xml version="1.0" standalone="no"?>
<!DOCTYPE svg PUBLIC "-//W3C//DTD SVG 20010904//EN"
 "http://www.w3.org/TR/2001/REC-SVG-20010904/DTD/svg10.dtd">
<svg version="1.0" xmlns="http://www.w3.org/2000/svg"
 width="2560.000000pt" height="2560.000000pt" viewBox="0 0 2560.000000 2560.000000"
 preserveAspectRatio="xMidYMid meet">

<g transform="translate(0.000000,2560.000000) scale(0.100000,-0.100000)"
fill="#000000" stroke="none">
<path d="M13419 17226 c-5 -5 -147 -29 -326 -56 -71 -11 -177 -28 -238 -39
-199 -36 -288 -52 -460 -81 -93 -16 -307 -54 -475 -84 -168 -30 -411 -73 -540
-95 -361 -61 -496 -88 -647 -127 -231 -60 -337 -83 -474 -104 -166 -25 -208
-26 -215 -2 -3 9 -10 27 -15 40 l-9 23 -38 -29 c-20 -17 -60 -35 -88 -42 -47
-10 -171 -15 -218 -8 -24 4 -34 -25 -35 -103 l-1 -56 -118 -11 c-65 -6 -124
-12 -132 -14 -9 -2 -16 9 -20 32 -3 19 -12 45 -19 58 -11 21 -14 22 -24 9 -39
-50 -217 -90 -304 -68 -58 15 -66 7 -67 -61 -1 -29 -5 -56 -11 -60 -6 -5 -4
-12 5 -18 9 -6 10 -10 3 -10 -7 0 -25 -12 -40 -27 -24 -24 -28 -26 -31 -10 -3
13 -13 17 -43 17 -21 0 -39 5 -39 10 0 6 -18 10 -41 10 -22 0 -49 5 -60 10
-11 6 -35 13 -55 15 -40 6 -84 26 -103 48 -9 11 -26 14 -71 10 -40 -4 -65 -2
-75 7 -12 10 -18 10 -30 0 -8 -7 -27 -10 -42 -7 -16 4 -22 4 -15 1 24 -11 11
-24 -23 -24 -20 0 -49 -7 -65 -15 -16 -8 -45 -17 -64 -20 -41 -5 -76 -21 -76
-35 0 -6 -18 -10 -40 -10 -38 0 -40 -2 -40 -30 0 -28 -2 -30 -39 -30 -22 0
-41 5 -44 13 -4 10 -7 10 -18 0 -11 -11 -10 -13 4 -13 9 0 17 -4 17 -10 0 -5
-18 -10 -40 -10 -29 0 -40 -4 -40 -15 0 -11 -11 -15 -40 -15 -36 0 -40 -2 -40
-25 0 -22 -4 -25 -40 -25 -38 0 -40 -2 -40 -30 0 -28 -2 -30 -40 -30 -36 0
-40 -2 -40 -25 0 -22 -4 -25 -40 -25 -29 0 -40 -4 -40 -15 0 -11 -11 -15 -40
-15 -36 0 -40 -2 -40 -25 0 -22 -4 -25 -40 -25 -36 0 -40 -2 -40 -25 0 -22 -4
-25 -40 -25 -38 0 -40 -2 -40 -30 l0 -30 -80 0 c-79 0 -80 0 -80 -25 0 -22 -4
-25 -40 -25 -29 0 -40 -4 -40 -15 0 -11 11 -15 40 -15 22 0 40 -4 40 -10 0 -6
-33 -10 -80 -10 -64 0 -80 -3 -80 -15 0 -11 -11 -15 -40 -15 -36 0 -40 -2 -40
-25 0 -22 -4 -25 -40 -25 -29 0 -40 -4 -40 -15 0 -12 -16 -15 -80 -15 -64 0
-80 -3 -80 -15 0 -11 -11 -15 -40 -15 -22 0 -40 -4 -40 -10 0 -5 -18 -10 -40
-10 -29 0 -40 -4 -40 -15 0 -12 -16 -15 -80 -15 -64 0 -80 -3 -80 -15 0 -12
-16 -15 -80 -15 -47 0 -80 -4 -80 -10 0 -6 -33 -10 -80 -10 -64 0 -80 -3 -80
-15 0 -11 -11 -15 -40 -15 -29 0 -40 -4 -40 -15 0 -12 -15 -15 -79 -15 -71 0
-80 2 -86 20 -3 11 -11 20 -16 20 -13 0 -11 -9 6 -27 8 -8 13 -19 10 -24 -8
-12 424 -12 640 1 358 21 821 77 1148 140 342 65 891 222 1048 300 35 17 104
62 153 99 172 129 226 160 226 128 0 -27 91 -64 185 -76 50 -6 107 -14 128
-16 23 -3 46 0 60 9 14 9 64 16 142 19 67 3 139 10 160 15 22 6 83 21 135 33
52 12 112 30 134 41 21 11 48 21 60 22 11 1 41 13 64 25 50 26 63 22 31 -7
-51 -49 -297 -149 -374 -153 -16 -1 -17 -2 -3 -6 26 -7 200 44 281 82 40 18
88 48 107 67 103 97 114 141 54 208 -20 22 -42 40 -50 40 -15 0 -28 38 -22 66
4 20 70 45 203 76 155 36 450 126 418 127 -7 1 -22 -3 -35 -8 -13 -5 -88 -28
-168 -50 -238 -66 -420 -90 -420 -55 0 30 27 42 136 58 60 9 152 26 204 37 52
11 120 25 150 30 30 6 64 14 75 19 11 4 56 15 100 24 44 9 112 24 150 33 39 8
87 17 108 19 21 2 42 6 48 9 5 4 53 6 107 7 66 0 91 2 77 9 -14 6 -6 7 25 3
25 -3 58 0 74 6 17 6 100 18 185 26 86 8 200 21 255 29 54 8 102 12 107 10 4
-3 39 1 76 9 37 9 115 23 173 31 96 15 144 23 270 45 398 70 545 97 700 129
102 21 188 37 193 34 4 -2 7 1 7 6 0 6 15 11 34 11 39 0 53 14 36 35 -7 9 -8
15 0 20 5 3 10 0 10 -7 0 -9 3 -9 10 2 7 11 29 15 90 15 70 -1 78 1 58 12 -21
11 -89 18 -99 9z m-3761 -914 c2 -18 15 -43 34 -61 l31 -30 -25 -10 c-14 -5
-78 -21 -144 -36 -65 -14 -126 -28 -135 -31 -14 -4 -18 8 -23 67 -6 53 -4 74
5 80 7 4 53 15 103 25 50 9 100 21 111 25 30 12 40 5 43 -29z m-721 -78 c-3
-3 -12 -4 -19 -1 -8 3 -5 6 6 6 11 1 17 -2 13 -5z m-2190 -740 c-3 -3 -12 -4
-19 -1 -8 3 -5 6 6 6 11 1 17 -2 13 -5z m-79 -21 c-10 -2 -28 -2 -40 0 -13 2
-5 4 17 4 22 1 32 -1 23 -4z"/>
<path d="M13425 17119 c-33 -15 -307 -73 -550 -117 -60 -11 -130 -25 -155 -31
-48 -11 -176 -31 -385 -62 -71 -10 -173 -25 -225 -33 -100 -16 -318 -41 -435
-51 -38 -3 -99 -10 -135 -15 -36 -5 -114 -14 -175 -20 -60 -6 -155 -18 -210
-26 -104 -15 -260 -47 -190 -39 22 3 128 16 235 30 107 13 267 31 355 39 468
44 654 70 1150 156 291 51 742 146 758 160 13 12 -16 18 -38 9z"/>
<path d="M11838 16863 c7 -3 16 -2 19 1 4 3 -2 6 -13 5 -11 0 -14 -3 -6 -6z"/>
<path d="M11688 16843 c7 -3 16 -2 19 1 4 3 -2 6 -13 5 -11 0 -14 -3 -6 -6z"/>
<path d="M9725 16731 c-22 -10 -46 -25 -54 -35 -12 -14 -11 -19 4 -36 10 -11
27 -20 38 -20 18 0 17 1 -4 19 -23 18 -23 20 -6 39 52 57 273 55 251 -3 -9
-23 -73 -47 -148 -56 l-71 -8 78 4 c134 6 212 64 137 102 -39 20 -177 16 -225
-6z"/>
<path d="M9790 16706 c0 -9 -4 -16 -10 -16 -5 0 -10 -4 -10 -8 0 -5 20 -9 45
-9 29 0 45 5 45 13 0 7 6 15 13 18 6 2 -1 4 -18 4 -16 0 -38 3 -47 7 -13 5
-18 3 -18 -9z"/>
<path d="M10841 16709 c-24 -5 -46 -11 -50 -14 -6 -7 72 5 109 16 35 10 -2 9
-59 -2z"/>
<path d="M10748 16683 c7 -3 16 -2 19 1 4 3 -2 6 -13 5 -11 0 -14 -3 -6 -6z"/>
<path d="M10708 16673 c7 -3 16 -2 19 1 4 3 -2 6 -13 5 -11 0 -14 -3 -6 -6z"/>
<path d="M9042 16575 c-44 -20 -53 -29 -50 -47 5 -37 43 -49 138 -46 132 6
209 59 148 102 -38 27 -171 21 -236 -9z m213 3 c65 -29 -11 -80 -129 -86 -73
-4 -83 -2 -100 17 -19 20 -19 23 -3 39 10 9 32 22 50 29 42 15 149 16 182 1z"/>
<path d="M9120 16549 c0 -5 -7 -9 -17 -9 -9 0 -13 -3 -9 -7 11 -11 76 -13 76
-2 0 5 7 9 15 9 8 0 15 4 15 9 0 4 -18 8 -40 8 -22 0 -40 -4 -40 -8z"/>
<path d="M8484 16475 c-2 -29 3 -30 30 -10 24 18 46 19 42 3 -1 -7 -1 -10 1
-5 3 4 19 7 36 7 48 1 13 16 -53 23 -53 6 -55 6 -56 -18z"/>
<path d="M8198 16473 c7 -3 16 -2 19 1 4 3 -2 6 -13 5 -11 0 -14 -3 -6 -6z"/>
<path d="M8268 16473 c7 -3 16 -2 19 1 4 3 -2 6 -13 5 -11 0 -14 -3 -6 -6z"/>
<path d="M8355 16470 c3 -5 0 -10 -7 -11 -42 -3 -60 -7 -71 -18 -9 -10 2 -11
52 -7 72 6 79 9 58 31 -17 17 -42 21 -32 5z"/>
<path d="M8648 16473 c7 -3 16 -2 19 1 4 3 -2 6 -13 5 -11 0 -14 -3 -6 -6z"/>
<path d="M8139 16434 c-9 -11 -6 -14 20 -14 34 0 42 15 11 23 -10 3 -24 -1
-31 -9z"/>
<path d="M7950 16390 c0 -5 4 -10 9 -10 6 0 13 5 16 10 3 6 -1 10 -9 10 -9 0
-16 -4 -16 -10z"/>
<path d="M7701 16336 l-33 -12 56 -1 c54 -1 73 8 40 21 -19 7 -21 7 -63 -8z"/>
<path d="M9648 15993 c7 -3 16 -2 19 1 4 3 -2 6 -13 5 -11 0 -14 -3 -6 -6z"/>
<path d="M3820 15963 c8 -3 31 -14 50 -25 l35 -20 -28 26 c-15 14 -38 26 -50
25 -15 0 -17 -2 -7 -6z"/>
<path d="M19240 15912 c0 -4 4 -12 9 -17 5 -6 12 -20 16 -32 5 -19 2 -23 -14
-23 -26 0 -37 -18 -19 -33 8 -7 23 -34 33 -61 22 -60 115 -242 150 -293 14
-21 25 -41 25 -46 0 -4 17 -34 37 -65 21 -31 44 -69 51 -83 7 -15 22 -36 33
-47 10 -12 19 -24 19 -28 0 -7 123 -178 151 -209 51 -57 203 -246 249 -308 19
-26 56 -75 83 -109 26 -33 47 -65 47 -70 0 -22 129 -188 200 -258 95 -93 218
-204 230 -208 6 -2 10 -11 11 -20 0 -10 3 -12 5 -5 3 7 0 21 -6 32 -6 12 -7
21 -2 21 6 0 12 10 15 21 4 16 11 20 26 16 16 -4 21 0 21 14 0 10 4 19 9 19
13 0 24 -34 12 -38 -6 -2 -11 -14 -11 -27 0 -13 -4 -27 -10 -30 -5 -3 -10 2
-10 12 -1 17 -1 17 -12 -1 -6 -11 -12 -44 -13 -75 -4 -104 -3 -101 -28 -101
-31 0 -129 -33 -161 -54 -28 -18 -36 -42 -10 -32 32 12 34 -7 4 -37 -49 -49
-63 -83 -58 -141 10 -120 151 -238 373 -311 44 -14 102 -29 128 -32 36 -4 53
-12 64 -29 8 -13 18 -24 22 -24 11 0 31 79 31 125 0 25 4 45 9 45 6 0 7 -15 4
-34 -3 -21 -1 -36 7 -41 9 -5 10 -2 5 14 -9 28 7 27 43 -4 27 -22 39 -25 113
-25 62 0 80 3 69 11 -13 9 -13 10 0 6 8 -2 14 -11 12 -21 -3 -19 1 -20 30 -3
29 16 48 33 48 44 0 4 32 23 71 42 54 27 72 32 79 22 6 -10 9 -10 12 -1 3 9
12 8 38 -3 19 -8 53 -22 75 -30 93 -34 125 -51 125 -64 0 -7 8 -13 17 -13 9 0
13 -3 9 -7 -3 -4 4 -13 16 -20 l23 -12 -22 -1 c-13 0 -23 -5 -23 -11 0 -8 14
-10 43 -6 23 2 36 3 30 0 -7 -3 -13 -8 -13 -12 0 -8 39 -30 75 -42 15 -5 13
-7 -12 -8 -42 -1 -46 -30 -5 -32 23 -2 24 -2 5 -6 -38 -7 -26 -23 20 -24 l42
-2 -35 -7 c-37 -8 -36 -10 13 -20 6 -1 -4 -6 -23 -10 -31 -7 -32 -7 -7 -9 25
-1 27 -4 27 -43 0 -28 3 -38 9 -30 14 22 21 -11 21 -94 0 -59 3 -74 15 -74 13
0 15 -38 15 -280 l0 -280 40 0 40 0 0 -80 0 -80 40 0 40 0 0 -120 0 -120 40 0
40 0 0 -80 0 -80 40 0 40 0 0 -120 0 -120 40 0 40 0 0 -40 c0 -40 0 -40 -37
-40 -21 0 -44 -4 -50 -8 -7 -4 15 -7 50 -6 53 1 55 0 10 -3 -29 -2 -53 -9 -53
-15 0 -7 22 -8 68 -4 106 11 397 8 441 -4 35 -9 41 -15 47 -45 3 -20 10 -38
15 -41 29 -17 -5 -24 -123 -25 -159 -2 -289 -12 -268 -22 8 -3 44 -11 80 -16
l65 -10 -78 3 c-43 2 -83 8 -90 15 -6 6 -20 11 -31 11 -17 0 -14 -5 14 -22 29
-18 50 -22 130 -22 176 -2 380 28 380 55 0 5 -6 26 -14 46 -7 21 -19 56 -26
78 -35 111 -218 551 -316 763 -19 40 -34 74 -34 77 0 8 -85 186 -201 420 -189
383 -361 640 -485 726 -44 30 -265 129 -289 129 -7 0 -15 17 -18 38 -9 53 -58
124 -116 169 -27 21 -50 45 -50 54 -2 55 -145 119 -265 119 l-59 0 7 73 c15
177 15 206 -6 232 -11 14 -33 32 -49 40 -20 11 -31 27 -39 58 -37 152 -181
427 -306 587 -231 295 -611 685 -854 878 -41 33 -104 85 -139 116 -77 67 -129
93 -207 106 -72 12 -184 13 -184 2z m1690 -2191 c0 -5 3 -17 7 -27 4 -11 3
-15 -4 -11 -6 4 -14 -4 -17 -18 -6 -25 -26 -35 -26 -13 0 20 24 78 32 78 4 0
8 -4 8 -9z m-195 -180 c39 -49 76 -90 83 -90 7 -1 11 -5 7 -10 -3 -5 -1 -12 5
-16 12 -7 14 -35 2 -35 -7 0 -178 226 -197 260 -18 33 32 -22 100 -109z m613
54 c-1 -36 -5 -65 -10 -65 -4 0 -8 29 -8 65 0 37 4 65 10 65 6 0 9 -27 8 -65z
m-488 -65 c0 -5 -4 -10 -10 -10 -5 0 -10 5 -10 10 0 6 5 10 10 10 6 0 10 -4
10 -10z m505 -98 c-11 -2 -25 -8 -30 -12 -13 -11 -148 -60 -152 -56 -2 2 29
17 69 35 40 17 80 35 88 40 8 5 22 6 30 2 12 -4 10 -6 -5 -9z m-228 -82 c-15
-5 -45 -10 -65 -11 -20 -1 -45 -6 -54 -11 -13 -6 -18 -5 -18 5 0 21 3 22 87
23 55 1 70 -1 50 -6z m128 -40 c-3 -5 -13 -10 -21 -10 -8 0 -12 5 -9 10 3 6
13 10 21 10 8 0 12 -4 9 -10z m492 -46 c-3 -3 -12 -4 -19 -1 -8 3 -5 6 6 6 11
1 17 -2 13 -5z m706 -1911 c-13 -2 -33 -2 -45 0 -13 2 -3 4 22 4 25 0 35 -2
23 -4z"/>
<path d="M10206 15893 c-3 -4 -6 -15 -6 -27 0 -27 -38 -81 -72 -100 -21 -13
-40 -15 -78 -10 -30 4 -50 3 -50 -3 0 -14 -40 -30 -93 -38 -26 -4 -55 -15 -66
-24 -18 -16 -18 -18 -3 -28 14 -8 10 -9 -18 -7 -19 2 -29 1 -22 -2 21 -10 13
-20 -25 -32 -128 -39 -406 -53 -551 -28 -96 17 -199 57 -241 95 -13 11 -28 21
-33 21 -36 0 52 -93 114 -120 86 -37 163 -50 333 -57 174 -6 316 9 470 49 44
12 117 22 162 24 83 3 149 16 193 39 17 9 31 10 43 4 21 -12 21 -1 1 26 -11
14 -15 40 -13 90 1 39 -1 82 -5 97 -8 26 -28 42 -40 31z"/>
<path d="M3932 15870 c7 -11 17 -20 22 -20 5 0 1 9 -9 20 -10 11 -20 20 -22
20 -2 0 2 -9 9 -20z"/>
<path d="M3858 15841 c14 -9 7 -107 -9 -117 -5 -3 -9 -18 -9 -34 0 -16 -9 -44
-19 -62 -10 -18 -22 -47 -26 -65 -3 -17 -13 -37 -21 -44 -8 -6 -14 -25 -14
-41 0 -31 -49 -103 -119 -175 -23 -23 -41 -49 -41 -57 0 -8 -4 -17 -9 -21 -25
-15 -42 -106 -42 -233 -1 -100 -4 -132 -14 -132 -16 0 -37 25 -28 33 3 4 -5 7
-18 7 -18 0 -21 -2 -10 -9 11 -7 5 -11 -24 -17 -39 -7 -35 -15 15 -28 24 -7
24 -6 6 8 -16 13 -17 16 -4 16 9 0 26 -11 39 -25 13 -13 30 -25 37 -25 6 0 12
-11 12 -25 0 -14 9 -30 20 -37 11 -7 20 -18 20 -25 0 -7 6 -13 13 -13 7 0 18
-9 25 -20 7 -11 17 -20 23 -20 5 0 22 -12 37 -26 26 -24 31 -25 92 -17 153 19
279 -6 295 -58 10 -31 -38 -74 -107 -94 -64 -18 -232 -22 -270 -7 -16 6 -28
10 -29 9 -15 -41 -20 -127 -11 -212 5 -49 5 -97 1 -106 -6 -11 -22 -17 -49
-17 -70 -1 -213 -90 -246 -153 -34 -66 -8 -137 66 -184 41 -26 220 -85 258
-85 18 0 28 11 47 54 48 107 49 128 16 198 -17 34 -27 65 -24 68 3 3 10 -3 17
-14 6 -10 19 -28 28 -40 l18 -21 -3 24 c-1 13 4 26 11 28 6 3 12 -1 12 -7 0
-27 60 -63 105 -63 16 1 23 -2 15 -5 -8 -3 -21 -11 -28 -19 -11 -11 -8 -13 20
-13 45 0 118 21 210 59 42 18 87 31 100 29 16 -2 2 -11 -52 -32 -41 -16 -88
-35 -105 -42 -67 -29 -153 -61 -197 -73 -49 -14 -62 -33 -31 -45 33 -13 228
55 393 137 14 7 26 23 28 35 4 28 11 27 75 -1 29 -13 73 -32 99 -42 26 -9 55
-26 64 -36 24 -27 30 -24 64 23 54 74 36 141 -55 205 -35 24 -160 68 -222 78
-24 4 -43 10 -43 15 0 4 -14 -5 -31 -21 -56 -52 -247 -84 -340 -56 l-45 14
-12 -38 c-7 -21 -12 -49 -12 -61 0 -17 -3 -19 -12 -10 -16 16 -15 141 2 172
28 53 112 87 238 97 l84 6 -6 36 c-3 20 -1 43 5 51 8 13 11 13 23 -3 12 -15
15 -15 26 -3 6 9 49 34 94 57 96 48 119 77 162 204 65 194 36 410 -91 665 -86
176 -185 317 -313 450 l-53 55 -67 2 c-39 2 -61 -1 -54 -6z m-90 -1489 c4 -27
-14 -29 -28 -3 -14 27 -13 33 8 29 9 -2 18 -13 20 -26z m156 -294 c17 -17 26
-57 15 -64 -21 -12 -49 8 -49 35 0 40 12 50 34 29z"/>
<path d="M5705 15500 c3 -5 8 -10 11 -10 2 0 4 5 4 10 0 6 -5 10 -11 10 -5 0
-7 -4 -4 -10z"/>
<path d="M5390 15482 c0 -13 47 -28 57 -18 4 3 -3 6 -13 6 -11 0 -25 5 -32 12
-9 9 -12 9 -12 0z"/>
<path d="M5474 15459 c-9 -15 1 -21 26 -17 21 3 21 3 1 15 -14 9 -22 9 -27 2z"/>
<path d="M3423 15193 c9 -2 25 -2 35 0 9 3 1 5 -18 5 -19 0 -27 -2 -17 -5z"/>
<path d="M13195 15170 c-8 -13 15 -13 35 0 12 8 11 10 -7 10 -12 0 -25 -4 -28
-10z"/>
<path d="M3448 15163 c7 -3 16 -2 19 1 4 3 -2 6 -13 5 -11 0 -14 -3 -6 -6z"/>
<path d="M13390 15150 c-13 -9 -13 -10 0 -9 8 0 24 4 35 9 l20 9 -20 0 c-11 0
-27 -4 -35 -9z"/>
<path d="M3429 15124 c-11 -14 -10 -15 11 -12 13 1 25 9 28 16 5 17 -23 15
-39 -4z"/>
<path d="M13110 15130 c-9 -6 -10 -10 -3 -10 6 0 15 5 18 10 8 12 4 12 -15 0z"/>
<path d="M13280 15105 c-14 -8 -20 -14 -15 -14 6 0 21 6 35 14 14 8 21 14 15
14 -5 0 -21 -6 -35 -14z"/>
<path d="M15221 15117 c2 -1 13 -9 24 -17 19 -14 19 -14 6 3 -7 9 -18 17 -24
17 -6 0 -8 -1 -6 -3z"/>
<path d="M13485 15090 c-4 -7 3 -8 22 -4 38 9 42 14 10 14 -14 0 -29 -5 -32
-10z"/>
<path d="M3472 15081 c-11 -7 -11 -9 2 -14 10 -4 16 -1 16 8 0 17 -1 17 -18 6z"/>
<path d="M13225 15080 c-3 -5 -2 -10 4 -10 5 0 13 5 16 10 3 6 2 10 -4 10 -5
0 -13 -4 -16 -10z"/>
<path d="M15270 15081 c0 -5 5 -13 10 -16 6 -3 10 -2 10 4 0 5 -4 13 -10 16
-5 3 -10 2 -10 -4z"/>
<path d="M13430 15070 c-13 -8 -13 -10 2 -10 9 0 20 5 23 10 8 13 -5 13 -25 0z"/>
<path d="M3440 15051 c0 -5 7 -12 16 -15 24 -9 27 -7 10 9 -17 17 -26 19 -26
6z"/>
<path d="M13388 15043 c7 -3 16 -2 19 1 4 3 -2 6 -13 5 -11 0 -14 -3 -6 -6z"/>
<path d="M15313 15032 c10 -10 17 -22 17 -26 0 -4 7 -14 15 -22 21 -22 19 -7
-6 32 -11 19 -25 34 -31 34 -6 0 -4 -8 5 -18z"/>
<path d="M13528 15003 c6 -2 18 -2 25 0 6 3 1 5 -13 5 -14 0 -19 -2 -12 -5z"/>
<path d="M3430 14975 c-11 -13 -8 -15 14 -15 15 0 38 -7 52 -16 20 -13 24 -14
22 -3 -2 8 -7 17 -13 21 -6 5 -4 8 5 9 22 1 -19 17 -46 18 -12 1 -27 -6 -34
-14z"/>
<path d="M3450 14810 c8 -5 29 -10 45 -10 23 0 27 3 15 10 -8 5 -28 10 -45 10
-23 0 -27 -3 -15 -10z"/>
<path d="M15225 14721 c-16 -11 -43 -33 -60 -50 -16 -18 -39 -39 -49 -49 -11
-9 -31 -29 -45 -43 -15 -14 -36 -31 -48 -38 -13 -6 -23 -18 -23 -26 0 -8 -3
-15 -8 -15 -11 0 -112 -94 -112 -105 0 -4 -8 -17 -17 -28 -26 -28 -24 -219 3
-248 9 -10 24 -19 31 -19 16 0 89 73 243 240 52 57 112 122 133 144 20 23 42
56 48 75 13 39 5 147 -12 167 -16 19 -49 17 -84 -5z"/>
<path d="M3787 14616 c-101 -29 -129 -78 -64 -113 48 -27 205 -24 268 4 26 12
50 26 54 33 13 20 -4 56 -32 69 -41 19 -170 23 -226 7z m174 -6 c20 -6 44 -18
53 -29 15 -17 15 -19 -1 -39 -22 -25 -110 -52 -170 -52 -56 0 -123 27 -123 50
0 55 144 97 241 70z"/>
<path d="M3865 14570 c-3 -6 -17 -7 -31 -4 -14 4 -24 2 -24 -5 0 -6 7 -11 15
-11 8 0 15 -5 15 -11 0 -7 8 -9 23 -4 12 4 32 6 45 6 12 0 22 4 22 9 0 6 -7
10 -16 10 -8 0 -12 5 -9 10 3 6 -3 10 -14 10 -11 0 -23 -5 -26 -10z"/>
<path d="M3490 14611 c0 -5 7 -15 17 -22 15 -13 15 -12 4 9 -12 23 -21 28 -21
13z"/>
<path d="M15491 14354 c0 -11 3 -14 6 -6 3 7 2 16 -1 19 -3 4 -6 -2 -5 -13z"/>
<path d="M15716 14279 c-54 -27 -111 -49 -126 -49 -29 0 -70 39 -70 66 0 8 -4
14 -9 14 -9 0 6 -51 24 -82 18 -30 54 -36 109 -19 28 9 53 18 56 21 3 4 33 24
68 45 118 72 89 75 -52 4z"/>
<path d="M3942 14295 c-63 -19 -92 -42 -92 -70 0 -77 262 -88 344 -15 29 26
29 28 14 52 -9 13 -34 30 -56 36 -51 16 -156 14 -210 -3z m203 -10 c101 -41
18 -107 -136 -109 -72 -1 -90 2 -108 18 -27 24 -26 37 2 64 42 39 177 55 242
27z"/>
<path d="M4035 14256 c-10 -7 -29 -10 -44 -8 l-26 5 25 -25 c21 -23 27 -24 43
-13 10 7 26 11 37 8 10 -3 21 0 24 6 4 7 -1 11 -14 11 -12 0 -19 4 -15 9 9 16
-11 21 -30 7z"/>
<path d="M3620 14190 c0 -5 7 -10 15 -10 8 0 15 5 15 10 0 6 -7 10 -15 10 -8
0 -15 -4 -15 -10z"/>
<path d="M15643 14193 c26 -7 20 -21 -10 -26 -27 -4 -27 -4 -3 -5 14 -1 32 3
40 8 13 9 13 11 0 20 -8 5 -22 9 -30 9 -11 -1 -10 -3 3 -6z"/>
<path d="M15605 14103 c-31 -8 -42 -23 -17 -23 27 0 29 -16 2 -23 -23 -6 -27
-27 -5 -27 8 0 15 -5 15 -10 0 -6 -11 -8 -26 -4 -17 4 -29 2 -35 -7 -4 -7 -11
-10 -16 -6 -4 5 -1 12 7 17 8 5 11 12 6 17 -4 4 -12 0 -17 -10 -6 -9 -17 -17
-26 -17 -13 0 -14 -3 -5 -12 19 -19 14 -25 -28 -32 -22 -3 -49 -15 -60 -26
-11 -11 -24 -20 -30 -20 -5 0 -10 -6 -10 -14 0 -7 -15 -19 -32 -27 -39 -15
-68 -42 -68 -64 0 -8 -4 -15 -10 -15 -5 0 -10 15 -10 34 0 40 -19 58 -27 27
-4 -17 -13 -21 -49 -21 -42 0 -44 -2 -44 -28 0 -20 -7 -33 -25 -42 -13 -7 -27
-21 -31 -32 -3 -10 -10 -18 -15 -18 -5 0 -9 -9 -9 -20 0 -11 -4 -20 -8 -20 -5
0 -17 -18 -27 -40 -12 -26 -25 -40 -37 -40 -14 0 -18 -8 -18 -40 0 -36 -2 -40
-25 -40 -22 0 -25 -4 -25 -39 0 -22 5 -41 13 -44 6 -3 -6 -3 -27 0 l-39 6 5
-52 c5 -51 17 -77 25 -55 2 7 13 10 23 7 11 -3 17 -9 15 -14 -3 -4 -12 -6 -20
-3 -9 4 -15 -4 -18 -28 -4 -30 -5 -31 -12 -10 -8 25 -45 31 -45 7 0 -8 5 -15
11 -15 5 0 7 -5 4 -10 -10 -17 -35 9 -35 35 0 13 5 25 11 27 6 2 14 27 17 56
4 43 2 52 -12 52 -10 0 -16 -9 -16 -25 0 -22 -4 -25 -40 -25 -36 0 -40 -2 -40
-25 0 -22 -4 -25 -40 -25 -29 0 -40 -4 -40 -15 0 -11 -11 -15 -40 -15 -29 0
-40 -4 -40 -15 0 -11 -11 -15 -39 -15 -22 0 -41 -5 -43 -12 -3 -9 -6 -9 -12 0
-4 7 -2 12 3 12 6 0 11 7 11 15 0 11 -11 15 -40 15 -29 0 -40 -4 -40 -15 0
-11 -11 -15 -40 -15 l-40 0 0 -40 0 -40 -105 0 -105 0 0 -40 0 -40 -85 0 -85
0 0 -40 c0 -22 -4 -40 -10 -40 -5 0 -10 -18 -10 -40 0 -22 5 -40 11 -40 5 0 7
-5 3 -11 -9 -15 -19 4 -28 54 -6 31 -11 37 -31 37 -28 0 -32 -8 -11 -24 8 -6
16 -35 19 -64 3 -37 1 -50 -6 -43 -6 6 -12 23 -13 38 -1 16 -9 41 -17 56 -16
31 -55 63 -64 53 -5 -5 44 -118 68 -156 32 -51 140 -278 145 -306 3 -19 10
-34 15 -34 5 0 9 -18 9 -40 0 -22 3 -40 8 -40 4 0 7 -28 7 -62 0 -51 -3 -63
-17 -66 -9 -2 -20 -16 -23 -32 -5 -21 -11 -27 -23 -24 -14 5 -13 3 2 -10 15
-12 20 -31 22 -81 1 -36 -2 -65 -7 -65 -19 0 -8 -21 16 -30 14 -5 25 -14 25
-19 0 -5 14 -14 30 -21 24 -10 33 -10 45 0 17 14 20 40 5 40 -5 0 -10 7 -10
16 0 13 -7 15 -27 11 -16 -2 -37 -1 -48 3 -21 9 -20 10 37 14 26 2 44 -3 57
-16 11 -10 25 -18 31 -18 16 0 12 -9 -20 -40 -30 -29 -32 -50 -7 -50 7 0 20
12 29 28 10 15 53 65 98 111 44 46 80 88 80 94 0 5 8 7 19 4 15 -3 17 0 13 16
-4 16 -2 19 13 14 12 -5 16 -3 12 7 -3 8 1 20 9 26 10 9 14 9 14 1 0 -6 -3
-11 -7 -11 -5 0 -7 -13 -7 -30 4 -86 1 -80 44 -80 29 0 40 4 40 15 0 8 5 15
10 15 6 0 10 -18 10 -40 l0 -40 70 0 c40 0 70 4 70 10 0 6 34 10 83 10 45 0
100 7 122 14 26 9 44 11 52 5 33 -28 73 -28 125 -1 42 22 64 26 123 26 72 -1
73 -1 54 19 -18 20 -17 43 2 32 5 -4 9 -2 9 4 0 6 17 9 37 7 28 -3 49 -14 78
-42 56 -55 78 -64 151 -64 l65 0 70 -70 c39 -38 75 -70 79 -70 4 0 13 -7 21
-16 28 -34 193 -94 174 -64 -4 6 -15 10 -24 8 -31 -5 -147 65 -136 82 3 4 -2
13 -9 19 -10 8 -16 9 -21 2 -4 -7 -10 -7 -19 1 -20 19 7 43 33 29 11 -6 28 -8
38 -4 28 10 73 43 73 54 0 14 -58 11 -63 -3 -2 -8 -8 -9 -13 -4 -5 5 -4 11 4
13 6 3 12 15 12 28 0 21 5 23 80 30 89 8 109 25 29 25 -35 0 -49 4 -47 12 3 8
21 11 51 9 46 -2 47 -2 47 28 0 29 2 31 39 31 39 0 40 -1 44 -37 2 -21 2 -3
-1 40 l-4 77 41 0 41 0 0 40 c0 22 -4 40 -10 40 -5 0 -10 18 -10 40 0 22 5 40
10 40 6 0 10 -18 10 -40 l0 -40 80 0 80 0 0 -30 c0 -28 2 -30 40 -30 39 0 40
-1 40 -35 0 -19 -4 -35 -10 -35 -5 0 -10 -7 -10 -15 0 -8 5 -15 10 -15 6 0 10
-33 10 -80 0 -73 -2 -80 -20 -80 -11 0 -20 -4 -20 -9 0 -20 13 -41 25 -41 7 0
18 -7 25 -15 7 -8 25 -15 41 -15 27 0 29 -3 29 -40 l0 -40 -42 -2 c-24 0 -54
0 -68 1 -23 1 -24 0 -7 -13 13 -10 15 -16 7 -21 -7 -4 -17 -2 -23 4 -15 15
-27 14 -27 -4 0 -8 -8 -14 -17 -13 -37 3 -63 -2 -63 -13 0 -21 142 6 315 61
50 15 146 40 215 55 69 15 141 31 160 35 41 11 166 27 264 36 39 3 64 10 59
15 -7 7 -104 1 -251 -18 -36 -4 -41 -3 -36 11 5 14 2 15 -17 8 -41 -15 -149
-14 -150 0 0 7 -6 -5 -13 -27 l-13 -40 -8 43 c-8 43 -30 57 -38 25 -3 -10 -5
8 -6 40 -1 34 3 57 9 57 6 0 10 8 8 18 -2 10 3 17 12 17 8 0 14 -8 14 -17 -1
-11 5 -18 17 -18 12 0 19 -7 19 -20 0 -25 11 -25 41 0 l24 19 -31 1 c-20 0
-34 6 -38 16 -9 22 -7 31 2 16 7 -10 18 -4 45 21 28 25 37 41 37 66 0 19 6 34
15 37 10 4 15 20 15 45 0 28 -4 39 -15 39 -11 0 -15 -11 -15 -40 l0 -40 -40 0
c-38 0 -40 -2 -40 -30 0 -25 -4 -30 -24 -30 -13 0 -31 -3 -40 -6 -12 -4 -16 0
-16 15 0 12 6 21 13 21 21 0 67 57 67 84 0 14 4 26 9 26 5 0 23 13 40 29 27
25 31 36 31 80 0 49 1 51 29 51 28 0 28 0 37 83 l9 82 33 3 c28 3 32 7 32 33
0 26 -3 29 -30 29 -16 0 -30 5 -30 10 0 13 -73 2 -78 -11 -2 -5 -17 -9 -34 -9
-40 0 -199 -39 -216 -53 -10 -8 -19 -8 -32 1 -12 7 -21 8 -25 2 -3 -6 -17 -10
-31 -10 -14 0 -35 -6 -47 -14 -12 -8 -75 -20 -139 -27 -69 -7 -118 -17 -119
-23 -1 -6 -2 -20 -3 -30 -1 -26 -23 -32 -30 -9 -3 10 -14 23 -24 30 -18 10
-19 8 -17 -35 1 -26 0 -34 -2 -19 -2 15 -13 33 -24 40 -10 6 -19 17 -19 24 0
7 -4 13 -10 13 -5 0 -10 -7 -10 -15 0 -8 -4 -15 -10 -15 -5 0 -10 5 -10 11 0
8 -5 8 -15 -1 -8 -7 -21 -10 -30 -7 -8 4 -21 0 -29 -8 -16 -17 -86 -20 -86 -5
0 6 -11 10 -25 10 -14 0 -25 6 -25 13 0 19 21 37 42 37 10 0 24 11 30 25 6 13
20 28 32 31 12 4 35 22 53 40 17 19 35 34 40 34 4 0 18 15 31 34 13 19 37 40
53 46 20 9 32 22 36 41 3 16 12 34 19 40 8 6 14 20 14 30 0 11 5 19 10 19 6 0
10 9 10 19 0 11 10 28 23 38 13 10 27 34 33 53 5 19 14 35 20 35 15 0 44 31
44 48 0 8 12 22 26 32 l26 17 -21 22 c-12 13 -21 36 -21 54 l0 31 -25 -25
c-14 -14 -44 -51 -67 -82 -23 -31 -44 -59 -48 -62 -3 -3 -19 -22 -35 -44 -42
-55 -90 -104 -82 -83 9 23 -9 22 -26 -3 -12 -17 -16 -18 -32 -7 -14 11 -15 18
-7 34 10 18 8 21 -15 26 -14 3 -56 -3 -92 -13 -54 -15 -210 -37 -231 -32 -3 0
-51 -5 -105 -12 -107 -13 -269 -14 -323 -2 -28 7 -32 11 -26 29 4 12 28 42 54
67 55 52 84 95 76 109 -4 6 3 15 15 21 15 9 20 19 16 36 -4 21 0 24 24 24 18
0 30 6 33 18 3 9 17 30 32 45 14 15 27 40 28 55 2 15 10 28 19 30 9 2 14 9 11
17 -3 7 3 19 13 26 21 16 44 84 36 106 -4 10 0 14 13 11 15 -2 20 4 22 27 2
17 10 34 18 38 8 4 14 16 14 27 0 23 32 80 45 80 6 0 16 9 23 21 10 16 11 24
1 35 -6 8 -9 18 -5 21 4 4 11 2 15 -5 5 -8 8 1 9 22 1 19 -3 38 -8 41 -6 4 -7
17 -4 31 6 21 3 24 -22 23 -16 -1 -38 -3 -49 -6z m-105 -173 c0 -5 -4 -10 -10
-10 -5 0 -10 5 -10 10 0 6 5 10 10 10 6 0 10 -4 10 -10z m-200 -124 c0 -3 -4
-8 -10 -11 -5 -3 -10 -1 -10 4 0 6 5 11 10 11 6 0 10 -2 10 -4z m140 -266 c0
-5 -4 -10 -10 -10 -5 0 -10 5 -10 10 0 6 5 10 10 10 6 0 10 -4 10 -10z m-540
-150 c0 -5 -4 -10 -10 -10 -5 0 -10 5 -10 10 0 6 5 10 10 10 6 0 10 -4 10 -10z
m1188 -296 c-11 -23 -52 -43 -64 -31 -12 11 8 27 33 27 17 0 24 4 20 14 -6 16
2 28 14 20 5 -2 3 -16 -3 -30z m-223 -4 c3 -5 -1 -10 -9 -10 -9 0 -16 5 -16
10 0 6 4 10 9 10 6 0 13 -4 16 -10z m45 -57 c-8 -3 -27 -12 -42 -20 -16 -7
-28 -10 -28 -5 0 9 47 30 70 30 13 0 13 0 0 -5z m-123 -39 c-3 -3 -12 -4 -19
-1 -8 3 -5 6 6 6 11 1 17 -2 13 -5z m-1837 -215 c0 -6 -4 -7 -10 -4 -5 3 -10
11 -10 16 0 6 5 7 10 4 6 -3 10 -11 10 -16z m2857 -41 c-2 -13 -4 -3 -4 22 0
25 2 35 4 23 2 -13 2 -33 0 -45z m-604 -15 c-7 -2 -21 -2 -30 0 -10 3 -4 5 12
5 17 0 24 -2 18 -5z m-73 -97 c0 -7 7 -19 15 -26 21 -18 19 -40 -5 -40 -11 0
-20 4 -20 9 0 5 -3 23 -6 40 -4 20 -3 31 5 31 6 0 11 -6 11 -14z m480 -56 c0
-5 -4 -10 -10 -10 -5 0 -10 5 -10 10 0 6 5 10 10 10 6 0 10 -4 10 -10z m27
-86 c-3 -3 -12 -4 -19 -1 -8 3 -5 6 6 6 11 1 17 -2 13 -5z m-2187 -118 c0 -2
-7 -9 -15 -16 -13 -11 -14 -10 -9 4 5 14 24 23 24 12z m-377 -43 c-7 -2 -19
-2 -25 0 -7 3 -2 5 12 5 14 0 19 -2 13 -5z m7 -128 c0 -11 -11 -15 -40 -15
-29 0 -40 4 -40 15 0 11 11 15 40 15 29 0 40 -4 40 -15z m130 -9 c0 -3 -4 -8
-10 -11 -5 -3 -10 -1 -10 4 0 6 5 11 10 11 6 0 10 -2 10 -4z m2330 -56 c0 -43
-3 -50 -20 -50 -16 0 -20 7 -20 38 0 36 14 62 32 62 4 0 8 -22 8 -50z m-2350
15 c-7 -8 -17 -15 -22 -15 -6 0 -5 7 2 15 7 8 17 15 22 15 6 0 5 -7 -2 -15z
m1478 -5 c7 -11 9 -20 4 -20 -10 0 -32 22 -32 32 0 15 15 8 28 -12z m812 -20
c0 -22 -4 -40 -10 -40 -5 0 -10 18 -10 40 0 22 5 40 10 40 6 0 10 -18 10 -40z
m-2415 -10 c3 -5 -1 -10 -9 -10 -8 0 -18 5 -21 10 -3 6 1 10 9 10 8 0 18 -4
21 -10z m2770 0 c-27 -12 -35 -12 -35 0 0 6 12 10 28 9 24 0 25 -1 7 -9z
m-2753 -32 c-8 -8 -9 -4 -5 13 4 13 8 18 11 10 2 -7 -1 -18 -6 -23z"/>
<path d="M15690 14070 c0 -5 5 -10 10 -10 6 0 10 5 10 10 0 6 -4 10 -10 10 -5
0 -10 -4 -10 -10z"/>
<path d="M4709 14005 c-3 -27 -9 -59 -13 -70 -7 -17 -6 -17 8 2 12 16 16 38
14 70 l-3 48 -6 -50z"/>
<path d="M15271 13904 c0 -11 3 -14 6 -6 3 7 2 16 -1 19 -3 4 -6 -2 -5 -13z"/>
<path d="M4600 13839 c0 -5 5 -7 10 -4 6 3 10 8 10 11 0 2 -4 4 -10 4 -5 0
-10 -5 -10 -11z"/>
<path d="M4564 13808 c35 -167 41 -262 41 -598 -1 -294 -4 -374 -23 -539 -13
-107 -25 -198 -27 -202 -3 -3 -11 -49 -19 -100 -9 -52 -22 -127 -31 -167 -10
-47 -13 -78 -7 -89 9 -15 10 -14 15 3 25 85 66 309 82 445 4 31 10 60 13 65
25 33 265 114 341 114 30 0 33 2 18 13 -9 6 -15 21 -12 32 2 11 4 37 4 57 1
26 6 37 18 40 15 3 15 4 -1 21 -16 16 -16 18 0 34 11 11 13 18 5 21 -6 2 -8
14 -5 28 3 13 1 31 -5 38 -9 11 -9 15 0 18 16 5 15 151 -1 156 -5 2 -7 8 -4
14 4 6 7 24 6 39 0 16 3 29 7 29 5 0 8 17 7 38 l-1 37 -65 -1 c-36 -1 -78 -5
-94 -9 -21 -6 -27 -5 -22 4 4 6 2 11 -3 11 -6 0 -19 8 -29 18 -15 15 -16 24
-6 79 7 38 7 67 2 75 -7 9 -11 9 -14 2 -9 -21 -36 -50 -31 -34 3 10 -2 16 -15
17 -10 1 -32 7 -47 14 -26 12 -28 19 -50 148 -27 161 -27 161 -42 161 -8 0 -9
-11 -5 -32z"/>
<path d="M4478 13603 c7 -3 16 -2 19 1 4 3 -2 6 -13 5 -11 0 -14 -3 -6 -6z"/>
<path d="M4485 13560 c-3 -6 1 -7 9 -4 18 7 21 14 7 14 -6 0 -13 -4 -16 -10z"/>
<path d="M4498 13533 c7 -3 16 -2 19 1 4 3 -2 6 -13 5 -11 0 -14 -3 -6 -6z"/>
<path d="M3176 13431 c-6 -9 -35 -25 -151 -85 -33 -17 -66 -36 -72 -43 -29
-26 -7 -114 41 -165 l25 -26 38 36 c21 19 37 39 36 44 -2 4 9 10 25 14 46 10
94 38 102 60 23 58 -18 208 -44 165z"/>
<path d="M4510 13420 c-9 -6 -10 -10 -3 -10 6 0 15 5 18 10 8 12 4 12 -15 0z"/>
<path d="M3290 13396 c0 -27 27 -71 61 -100 41 -35 107 -68 119 -61 23 14 6
36 -51 66 -33 18 -76 51 -95 73 -23 27 -34 34 -34 22z"/>
<path d="M8570 13401 c-17 -12 -23 -5 71 -78 62 -48 105 -67 114 -52 4 5 15 7
25 4 13 -4 37 13 86 60 l68 65 -86 0 c-47 0 -125 3 -174 6 -54 3 -95 1 -104
-5z"/>
<path d="M4493 13373 c9 -2 23 -2 30 0 6 3 -1 5 -18 5 -16 0 -22 -2 -12 -5z"/>
<path d="M14400 13370 c0 -5 7 -10 16 -10 8 0 12 5 9 10 -3 6 -10 10 -16 10
-5 0 -9 -4 -9 -10z"/>
<path d="M4448 13363 c7 -3 16 -2 19 1 4 3 -2 6 -13 5 -11 0 -14 -3 -6 -6z"/>
<path d="M13920 13215 c0 -8 7 -15 15 -15 8 0 15 4 15 9 0 5 -7 11 -15 15 -9
3 -15 0 -15 -9z"/>
<path d="M13824 13169 c-3 -6 -1 -16 5 -22 8 -8 11 -5 11 11 0 24 -5 28 -16
11z"/>
<path d="M20893 13165 c4 -8 3 -16 -1 -19 -5 -3 -9 -22 -10 -44 -2 -22 -5 -50
-7 -63 -27 -140 -36 -204 -33 -229 4 -29 3 -30 -33 -30 -88 0 -315 67 -399
118 -132 81 -205 146 -238 212 -28 58 -36 24 -8 -36 53 -114 171 -204 364
-279 134 -51 367 -105 383 -87 4 4 0 27 -9 52 -27 75 -20 291 14 403 4 11 0
17 -11 17 -11 0 -15 -5 -12 -15z"/>
<path d="M3090 13116 c0 -9 40 -13 46 -5 3 5 -6 9 -20 9 -14 0 -26 -2 -26 -4z"/>
<path d="M3055 13100 c-4 -6 -3 -16 3 -22 6 -6 12 -6 17 2 4 6 3 16 -3 22 -6
6 -12 6 -17 -2z"/>
<path d="M13795 13090 c3 -5 10 -10 16 -10 5 0 9 5 9 10 0 6 -7 10 -16 10 -8
0 -12 -4 -9 -10z"/>
<path d="M16956 12873 c7 -35 8 -36 33 -28 35 11 19 55 -20 55 -14 0 -17 -6
-13 -27z"/>
<path d="M16947 12803 c-11 -10 -8 -83 3 -83 6 0 10 20 10 45 0 46 -2 50 -13
38z"/>
<path d="M16880 12720 c0 -64 3 -80 15 -80 17 0 18 11 9 99 -10 87 -24 76 -24
-19z"/>
<path d="M16880 12545 c0 -13 4 -14 20 -5 11 6 20 13 20 15 0 3 -9 5 -20 5
-11 0 -20 -7 -20 -15z"/>
<path d="M16938 12553 c7 -3 16 -2 19 1 4 3 -2 6 -13 5 -11 0 -14 -3 -6 -6z"/>
<path d="M16880 12479 c0 -11 4 -18 10 -14 5 3 7 12 3 20 -7 21 -13 19 -13 -6z"/>
<path d="M16910 12440 c0 -5 7 -10 15 -10 8 0 15 5 15 10 0 6 -7 10 -15 10 -8
0 -15 -4 -15 -10z"/>
<path d="M16880 12410 c0 -5 5 -10 11 -10 5 0 7 5 4 10 -3 6 -8 10 -11 10 -2
0 -4 -4 -4 -10z"/>
<path d="M16260 12385 c0 -8 9 -15 20 -15 11 0 20 7 20 15 0 8 -9 15 -20 15
-11 0 -20 -7 -20 -15z"/>
<path d="M3489 12309 c-5 -75 1 -199 10 -199 7 0 4 222 -3 245 -2 6 -5 -15 -7
-46z"/>
<path d="M16240 12335 c0 -8 5 -15 10 -15 6 0 10 7 10 15 0 8 -4 15 -10 15 -5
0 -10 -7 -10 -15z"/>
<path d="M3462 12300 c0 -14 2 -19 5 -12 2 6 2 18 0 25 -3 6 -5 1 -5 -13z"/>
<path d="M13927 12283 c-4 -3 -7 -15 -7 -25 0 -13 -7 -18 -26 -18 -14 0 -33
-4 -42 -9 -9 -4 -34 -11 -55 -14 -31 -5 -38 -3 -33 9 5 12 2 12 -18 -1 -12 -8
-25 -12 -28 -9 -4 3 -11 -4 -18 -15 -6 -12 -15 -19 -20 -16 -6 3 -21 -5 -35
-19 -14 -15 -30 -26 -34 -26 -5 0 -14 -7 -21 -15 -7 -8 -21 -15 -31 -15 -11 0
-19 -7 -19 -15 0 -8 -7 -15 -15 -15 -8 0 -15 -4 -15 -9 0 -5 -9 -11 -20 -14
-11 -3 -20 -12 -20 -20 0 -9 -13 -18 -32 -23 -29 -6 -30 -8 -13 -15 14 -5 15
-8 4 -8 -29 -2 -69 -26 -69 -43 0 -9 -12 -21 -27 -28 -54 -22 -73 -35 -79 -52
-3 -10 -11 -15 -20 -11 -7 3 -14 0 -14 -6 0 -23 -36 -52 -55 -45 -16 6 -17 3
-12 -22 3 -16 4 -24 1 -17 -8 18 -34 4 -34 -18 0 -12 -5 -16 -14 -13 -8 3 -19
-3 -25 -15 -6 -11 -17 -18 -25 -15 -8 3 -16 -3 -19 -15 -3 -12 -16 -25 -29
-30 -13 -5 -30 -16 -37 -25 -7 -9 -22 -16 -33 -16 -11 0 -18 -5 -16 -12 7 -19
-58 -79 -77 -72 -12 5 -16 2 -13 -11 2 -12 -10 -24 -39 -39 -23 -11 -43 -27
-43 -34 0 -8 -5 -12 -12 -10 -6 2 -25 -11 -41 -29 -16 -18 -35 -33 -43 -33 -8
0 -14 -4 -14 -10 0 -5 -9 -10 -20 -10 -11 0 -20 -4 -20 -10 0 -11 -22 -34 -70
-70 -18 -14 -46 -37 -62 -52 -16 -16 -38 -28 -49 -28 -10 0 -19 -3 -19 -7 0
-5 -7 -17 -16 -28 -12 -17 -16 -18 -24 -5 -7 11 -10 8 -15 -13 -6 -22 -10 -25
-21 -16 -10 8 -14 8 -14 0 0 -6 -7 -11 -15 -11 -8 0 -15 -8 -15 -19 0 -24 -25
-45 -42 -35 -7 4 -10 3 -5 -1 11 -13 -24 -45 -50 -45 -12 0 -23 -4 -23 -10 0
-5 -6 -10 -14 -10 -8 0 -16 -7 -20 -15 -3 -8 -15 -15 -26 -15 -11 0 -20 -5
-20 -12 0 -6 -3 -9 -6 -5 -4 3 -20 -1 -37 -9 -25 -13 -31 -14 -39 -2 -8 10 -9
9 -4 -4 4 -14 0 -18 -19 -18 -14 0 -33 -4 -43 -10 -16 -9 -88 -26 -141 -34
-13 -2 -26 -7 -30 -12 -3 -5 -12 -9 -18 -10 -7 -1 -22 -2 -34 -2 -11 -1 -17
-7 -14 -12 4 -6 10 -8 15 -5 5 3 11 1 15 -5 6 -10 -49 -16 -108 -12 -19 2 -26
-2 -21 -9 4 -8 -4 -9 -27 -4 -19 3 -29 3 -22 -2 11 -8 -116 -35 -174 -37 -13
-1 -23 -4 -23 -7 0 -13 -73 -21 -80 -8 -4 6 -13 8 -20 4 -9 -6 -9 -9 1 -16 10
-6 7 -9 -11 -9 -14 0 -36 -3 -49 -7 -20 -5 -23 -3 -18 10 4 12 1 17 -9 17 -11
0 -15 -6 -11 -20 4 -15 0 -20 -15 -20 -16 0 -19 5 -15 21 4 17 3 19 -6 10 -6
-6 -19 -11 -29 -11 -20 0 -24 -16 -5 -23 6 -2 0 -3 -15 -1 -16 2 -28 0 -28 -5
0 -12 -126 -42 -183 -44 -26 -1 -47 -5 -47 -8 0 -5 -31 -13 -95 -23 -5 -1 -17
-5 -25 -8 -8 -4 -32 -9 -52 -13 -21 -3 -40 -10 -43 -15 -7 -11 69 -4 170 15
169 32 397 78 475 96 47 11 99 22 115 24 17 3 87 16 155 31 154 32 334 41 400
18 60 -21 111 -62 67 -55 -4 1 -2 -9 4 -21 8 -14 14 -18 17 -10 5 16 22 15 22
-2 0 -8 -7 -16 -15 -20 -16 -6 -20 -59 -9 -140 9 -59 34 -64 34 -6 0 29 -4 40
-15 40 -18 0 -17 68 2 88 9 9 12 5 15 -20 2 -28 9 -35 38 -45 36 -12 34 -15
-10 -15 -22 0 -23 0 -3 -4 27 -6 36 -32 34 -98 -1 -65 -10 -105 -28 -133 -9
-13 -11 -23 -7 -23 5 -1 -4 -8 -19 -16 -30 -16 -53 -10 -27 6 11 7 11 10 2 10
-7 0 -17 10 -21 23 -9 21 -9 21 -16 2 -3 -11 -10 -27 -14 -35 -10 -18 10 -40
36 -40 10 0 29 9 43 20 14 11 31 20 38 20 7 0 10 5 6 12 -4 6 -3 8 3 5 5 -4
24 8 41 24 18 17 38 29 46 26 20 -8 28 4 14 20 -9 12 -7 13 14 8 21 -5 32 -1
54 24 15 17 33 31 39 31 7 0 25 12 41 26 15 15 43 31 60 36 19 5 36 17 39 29
5 15 13 20 30 17 16 -4 22 -1 18 9 -3 7 2 13 11 13 8 0 20 8 25 19 6 11 26 21
49 25 30 4 48 16 77 51 22 25 47 45 57 45 10 0 18 6 18 14 0 10 -14 16 -42 19
-39 4 -38 4 9 4 48 0 83 14 83 34 0 5 -8 9 -19 9 -19 0 -31 25 -31 65 0 14 8
7 26 -22 14 -24 29 -43 35 -43 13 0 11 9 -12 46 l-21 34 21 0 c12 0 21 -4 21
-10 0 -17 34 -50 52 -50 30 0 21 37 -12 52 -26 11 -30 18 -30 50 0 21 4 38 9
38 13 0 71 56 71 69 0 6 13 11 29 11 17 0 33 5 36 10 12 19 35 -18 35 -54 0
-20 5 -36 10 -36 6 0 10 18 10 40 0 22 5 40 10 40 6 0 10 -18 10 -39 0 -24 5
-41 14 -44 11 -4 12 8 8 64 l-5 69 149 0 c134 0 171 8 109 23 -11 3 2 5 28 6
27 0 46 -3 43 -8 -3 -4 7 -6 22 -3 19 4 22 7 10 10 -10 2 -18 8 -18 13 0 15
46 40 64 33 11 -4 16 -1 16 10 0 13 7 16 33 12 52 -7 77 -17 77 -32 0 -8 7
-14 16 -14 8 0 12 -4 9 -10 -3 -5 3 -10 14 -10 23 0 31 23 30 80 0 19 3 94 7
167 8 164 -5 248 -49 318 -52 82 -56 88 -82 137 -22 42 -23 48 -9 62 8 9 20
16 25 16 6 0 17 6 24 14 10 9 63 15 187 21 95 4 191 7 213 6 54 -3 155 9 155
18 0 4 -12 14 -27 22 -69 34 -213 162 -213 187 0 14 46 53 53 45 4 -3 7 -17 7
-29 0 -25 34 -51 45 -34 3 5 1 10 -6 10 -10 0 -10 3 -1 12 14 14 16 42 3 33
-6 -3 -13 15 -16 40 -7 43 -14 53 -28 38z m-1053 -1138 c-4 -8 -11 -15 -16
-15 -6 0 -5 6 2 15 7 8 14 15 16 15 2 0 1 -7 -2 -15z m333 -17 c-3 -7 -5 -2
-5 12 0 14 2 19 5 13 2 -7 2 -19 0 -25z m-340 -84 c-3 -3 -12 -4 -19 -1 -8 3
-5 6 6 6 11 1 17 -2 13 -5z m-167 -28 c0 -2 -8 -10 -17 -17 -16 -13 -17 -12
-4 4 13 16 21 21 21 13z m-75 -66 c-16 -16 -31 -28 -33 -25 -4 4 48 54 57 55
3 0 -8 -13 -24 -30z m85 -101 c0 -5 -7 -9 -15 -9 -15 0 -20 12 -9 23 8 8 24
-1 24 -14z m-774 -21 c3 -5 -38 -7 -90 -6 -53 2 -96 7 -96 11 0 11 180 6 186
-5z m80 -36 c12 -10 27 -29 34 -42 19 -35 40 -129 30 -135 -8 -5 -12 9 -26 87
-4 25 -17 48 -40 68 -19 16 -34 32 -34 35 0 10 15 4 36 -13z m699 8 c4 -6 -11
-10 -37 -9 -36 1 -39 2 -18 9 36 11 48 11 55 0z"/>
<path d="M21080 12257 c0 -11 -14 -15 -54 -16 -30 0 -64 -5 -77 -10 -18 -7 -8
-8 36 -5 l60 4 -45 -12 c-25 -6 -39 -13 -32 -15 19 -7 162 7 162 15 0 4 -12
18 -25 31 -18 17 -25 19 -25 8z"/>
<path d="M13966 12252 c-2 -4 -1 -14 5 -22 7 -12 9 -10 9 8 0 23 -5 28 -14 14z"/>
<path d="M3450 12233 c0 -5 5 -15 10 -23 8 -12 10 -11 10 8 0 12 -4 22 -10 22
-5 0 -10 -3 -10 -7z"/>
<path d="M19533 12213 c9 -2 23 -2 30 0 6 3 -1 5 -18 5 -16 0 -22 -2 -12 -5z"/>
<path d="M19613 12213 c9 -2 23 -2 30 0 6 3 -1 5 -18 5 -16 0 -22 -2 -12 -5z"/>
<path d="M19688 12213 c6 -2 18 -2 25 0 6 3 1 5 -13 5 -14 0 -19 -2 -12 -5z"/>
<path d="M19020 12199 c-22 -6 -20 -7 13 -8 38 -1 47 3 25 11 -7 3 -24 1 -38
-3z"/>
<path d="M19128 12203 c7 -3 16 -2 19 1 4 3 -2 6 -13 5 -11 0 -14 -3 -6 -6z"/>
<path d="M19248 12203 c29 -2 74 -2 100 0 26 2 2 3 -53 3 -55 0 -76 -1 -47 -3z"/>
<path d="M20848 12203 c6 -2 18 -2 25 0 6 3 1 5 -13 5 -14 0 -19 -2 -12 -5z"/>
<path d="M18898 12193 c12 -2 32 -2 45 0 12 2 2 4 -23 4 -25 0 -35 -2 -22 -4z"/>
<path d="M18538 12183 c7 -3 16 -2 19 1 4 3 -2 6 -13 5 -11 0 -14 -3 -6 -6z"/>
<path d="M18673 12183 c20 -2 54 -2 75 0 20 2 3 4 -38 4 -41 0 -58 -2 -37 -4z"/>
<path d="M15840 12170 c0 -5 18 -10 40 -10 22 0 40 5 40 10 0 6 -18 10 -40 10
-22 0 -40 -4 -40 -10z"/>
<path d="M16728 12163 c6 -2 18 -2 25 0 6 3 1 5 -13 5 -14 0 -19 -2 -12 -5z"/>
<path d="M14730 12150 c0 -5 7 -7 15 -4 8 4 15 8 15 10 0 2 -7 4 -15 4 -8 0
-15 -4 -15 -10z"/>
<path d="M17498 12153 c12 -2 30 -2 40 0 9 3 -1 5 -23 4 -22 0 -30 -2 -17 -4z"/>
<path d="M17693 12153 c9 -2 25 -2 35 0 9 3 1 5 -18 5 -19 0 -27 -2 -17 -5z"/>
<path d="M17768 12153 c6 -2 18 -2 25 0 6 3 1 5 -13 5 -14 0 -19 -2 -12 -5z"/>
<path d="M16920 12140 c0 -5 4 -10 9 -10 6 0 13 5 16 10 3 6 -1 10 -9 10 -9 0
-16 -4 -16 -10z"/>
<path d="M17200 12141 c0 -4 33 -6 73 -4 102 6 106 11 10 12 -46 1 -83 -3 -83
-8z"/>
<path d="M3500 12090 c0 -5 5 -10 11 -10 5 0 7 5 4 10 -3 6 -8 10 -11 10 -2 0
-4 -4 -4 -10z"/>
<path d="M4490 12072 c0 -25 -33 -42 -83 -42 -55 0 -331 -50 -322 -58 5 -5
141 9 278 29 38 5 82 16 97 24 27 14 46 42 35 53 -3 3 -5 0 -5 -6z"/>
<path d="M3500 12066 c0 -3 4 -16 10 -30 6 -17 6 -27 -1 -32 -6 -4 -4 -14 5
-30 9 -13 16 -30 16 -39 0 -8 5 -15 11 -15 7 0 8 7 4 18 -4 9 -12 43 -18 75
-6 31 -14 57 -19 57 -4 0 -8 -2 -8 -4z"/>
<path d="M15740 12060 c0 -5 5 -10 10 -10 6 0 10 5 10 10 0 6 -4 10 -10 10 -5
0 -10 -4 -10 -10z"/>
<path d="M14340 11990 c-16 -6 -1 -7 40 -3 36 3 67 7 69 9 8 8 -84 2 -109 -6z"/>
<path d="M15835 11990 c3 -5 14 -10 23 -10 15 0 15 2 2 10 -20 13 -33 13 -25
0z"/>
<path d="M14224 11983 c7 -7 77 -5 85 3 2 2 -17 4 -44 4 -27 0 -45 -3 -41 -7z"/>
<path d="M15905 11950 c-3 -5 -1 -10 4 -10 6 0 11 5 11 10 0 6 -2 10 -4 10 -3
0 -8 -4 -11 -10z"/>
<path d="M15930 11950 c0 -5 7 -10 15 -10 8 0 15 5 15 10 0 6 -7 10 -15 10 -8
0 -15 -4 -15 -10z"/>
<path d="M15989 11937 c15 -19 91 -24 91 -7 0 6 -15 10 -34 10 -19 0 -43 3
-53 7 -16 6 -16 5 -4 -10z"/>
<path d="M3511 11924 c0 -11 3 -14 6 -6 3 7 2 16 -1 19 -3 4 -6 -2 -5 -13z"/>
<path d="M3540 11865 c0 -14 4 -25 9 -25 4 0 6 11 3 25 -2 14 -6 25 -8 25 -2
0 -4 -11 -4 -25z"/>
<path d="M3556 11798 c4 -25 2 -38 -5 -38 -6 0 -11 8 -11 17 0 9 -3 14 -6 10
-8 -8 5 -47 16 -47 15 0 22 44 11 70 -9 22 -10 20 -5 -12z"/>
<path d="M21535 11780 c3 -5 8 -10 11 -10 2 0 4 5 4 10 0 6 -5 10 -11 10 -5 0
-7 -4 -4 -10z"/>
<path d="M21610 11710 c0 -5 5 -10 11 -10 5 0 7 5 4 10 -3 6 -8 10 -11 10 -2
0 -4 -4 -4 -10z"/>
<path d="M3571 11694 c0 -11 3 -14 6 -6 3 7 2 16 -1 19 -3 4 -6 -2 -5 -13z"/>
<path d="M21650 11676 c0 -2 7 -9 15 -16 13 -11 14 -10 9 4 -5 14 -24 23 -24
12z"/>
<path d="M21705 11630 c3 -5 11 -10 16 -10 6 0 7 5 4 10 -3 6 -11 10 -16 10
-6 0 -7 -4 -4 -10z"/>
<path d="M3585 11590 c3 -5 8 -10 11 -10 2 0 4 5 4 10 0 6 -5 10 -11 10 -5 0
-7 -4 -4 -10z"/>
<path d="M21740 11596 c0 -2 8 -10 18 -17 15 -13 16 -12 3 4 -13 16 -21 21
-21 13z"/>
<path d="M21795 11550 c3 -5 8 -10 11 -10 2 0 4 5 4 10 0 6 -5 10 -11 10 -5 0
-7 -4 -4 -10z"/>
<path d="M3601 11534 c0 -11 3 -14 6 -6 3 7 2 16 -1 19 -3 4 -6 -2 -5 -13z"/>
<path d="M21825 11520 c3 -5 8 -10 11 -10 2 0 4 5 4 10 0 6 -5 10 -11 10 -5 0
-7 -4 -4 -10z"/>
<path d="M21610 11509 c-36 -4 -148 -12 -250 -19 -102 -6 -246 -17 -320 -25
-74 -8 -162 -18 -195 -21 -94 -9 -614 -70 -800 -95 -38 -5 -133 -18 -210 -29
-77 -12 -183 -27 -235 -35 -397 -57 -1093 -211 -1381 -305 -118 -39 -290 -66
-373 -58 -35 3 -41 7 -48 35 -10 37 -70 88 -93 79 -9 -3 -14 -2 -11 3 11 18
-121 44 -192 38 -96 -8 -147 -30 -167 -74 -13 -27 -14 -37 -5 -43 16 -10 4
-31 -14 -24 -9 3 -17 -18 -27 -73 -13 -68 -17 -78 -34 -76 -11 2 -80 8 -152
15 l-133 12 -11 33 c-15 48 -87 97 -159 110 -94 16 -167 14 -221 -6 -81 -31
-115 -75 -85 -111 26 -31 28 -44 4 -22 l-26 24 -17 -52 c-10 -31 -15 -66 -12
-87 5 -28 3 -34 -9 -29 -9 3 -20 6 -25 6 -16 0 -11 90 6 96 32 13 12 21 -57
27 -40 3 -176 26 -301 51 -290 59 -382 68 -526 56 -125 -11 -264 -32 -356 -54
l-60 -14 45 -2 c35 -1 40 -3 25 -10 -11 -5 -33 -9 -48 -9 -19 -1 -26 -5 -21
-12 5 -8 -1 -10 -19 -5 -14 3 -29 1 -32 -4 -4 -6 -15 -8 -26 -5 -11 4 -19 2
-19 -4 0 -6 -11 -11 -24 -11 -16 0 -26 -7 -30 -22 -4 -15 -9 -19 -13 -11 -15
22 -73 20 -73 -3 0 -12 7 -15 30 -12 16 3 30 1 30 -3 0 -4 -21 -10 -47 -14
-27 -4 -52 -10 -58 -14 -5 -4 -37 -14 -70 -21 -33 -7 -70 -19 -82 -26 -12 -8
-31 -14 -42 -14 -11 0 -35 -8 -53 -18 -18 -11 -49 -22 -68 -25 -19 -4 -48 -14
-64 -22 -15 -8 -35 -15 -42 -15 -8 0 -14 -4 -14 -10 0 -5 -6 -10 -14 -10 -8 0
-61 -16 -118 -35 -109 -38 -146 -50 -268 -86 -41 -13 -77 -26 -80 -29 -3 -4
-48 -17 -100 -29 -120 -28 -161 -42 -182 -59 -9 -7 -56 -20 -105 -29 -48 -8
-89 -19 -91 -24 -2 -5 -16 -9 -32 -9 -15 0 -33 -6 -39 -14 -7 -8 -31 -17 -54
-21 -64 -10 -149 -35 -174 -51 -13 -8 -23 -10 -23 -4 0 14 -21 12 -39 -4 -9
-8 -54 -24 -101 -35 -47 -11 -89 -27 -95 -34 -5 -8 -33 -16 -61 -20 -28 -3
-77 -15 -110 -27 -32 -12 -72 -24 -89 -27 -16 -2 -39 -8 -50 -13 -36 -15 -79
-28 -147 -46 -71 -18 -76 -22 -56 -42 17 -17 -52 17 -75 36 -9 8 -20 13 -23
10 -3 -3 16 -23 42 -44 73 -60 319 -302 313 -309 -6 -5 -216 19 -266 30 -12 3
-48 29 -79 58 -117 107 -212 183 -220 174 -3 -3 9 -19 27 -36 18 -17 30 -33
28 -35 -8 -8 -81 63 -74 73 3 6 -3 15 -13 20 -24 13 -34 47 -18 59 6 5 76 28
156 52 80 23 150 45 155 49 6 5 33 16 62 26 40 14 50 22 42 31 -8 10 -2 15 25
22 20 6 45 8 56 5 25 -7 160 26 160 38 0 5 -7 12 -15 15 -8 4 -15 10 -15 15 0
16 29 10 50 -11 18 -18 22 -18 47 -5 28 14 208 65 229 65 7 0 14 7 18 15 3 9
19 15 38 15 18 1 44 7 56 14 22 11 22 14 8 28 -17 18 -11 28 16 28 11 0 18 7
18 20 0 13 -7 20 -19 20 -11 0 -23 5 -26 10 -4 6 5 10 19 10 17 0 26 5 26 16
0 14 -8 16 -52 11 -29 -3 -60 -8 -69 -12 -9 -3 -23 1 -32 9 -9 9 -25 16 -36
16 -11 0 -22 4 -25 9 -7 11 45 25 53 14 3 -4 14 -14 24 -22 14 -11 20 -11 33
0 9 7 34 12 60 10 35 -2 44 1 44 13 0 11 9 16 30 16 28 0 30 2 30 40 0 22 5
40 10 40 6 0 10 -36 10 -87 0 -106 15 -100 25 10 6 67 5 77 -9 77 -9 0 -16 5
-16 12 0 9 -3 9 -12 0 -17 -17 -38 -15 -60 5 -19 17 -21 17 -50 0 -32 -18
-118 -24 -118 -7 0 6 -9 10 -19 10 -11 0 -23 5 -26 10 -4 6 5 10 19 10 19 0
26 5 26 20 0 16 7 20 30 20 28 0 30 2 30 40 0 36 -3 40 -24 40 -14 0 -28 5
-32 12 -5 8 0 9 17 5 13 -4 32 -7 42 -7 14 0 17 -10 17 -60 l0 -60 31 0 c17 0
44 8 60 17 23 14 33 15 48 6 11 -7 23 -8 32 -2 11 7 9 9 -8 9 -20 0 -23 5 -23
40 0 38 -2 40 -30 40 -25 0 -30 4 -30 25 0 23 4 25 40 25 32 0 40 4 40 18 0
15 -6 18 -32 15 -31 -3 -31 -2 -10 8 19 10 31 29 18 29 -15 0 -54 -29 -48 -35
4 -5 2 -5 -5 -1 -17 10 -6 31 23 44 13 7 24 17 24 23 0 6 7 8 16 5 10 -4 13
-2 8 6 -5 7 -3 8 6 3 7 -4 16 -2 22 6 7 11 11 11 15 2 7 -18 32 -16 40 3 5 13
14 15 44 10 31 -5 39 -3 39 9 0 9 -12 20 -27 26 -22 8 -24 12 -13 19 8 5 25 7
36 4 15 -4 22 -1 21 9 -1 7 17 30 41 50 23 20 38 38 33 41 -5 4 -11 3 -13 -2
-3 -8 -140 -99 -213 -141 -22 -13 -62 -38 -90 -56 -174 -113 -227 -145 -240
-145 -8 0 -15 -4 -15 -8 0 -9 -135 -92 -149 -92 -5 0 -11 -4 -13 -8 -2 -5 -38
-29 -80 -54 -43 -25 -74 -49 -70 -53 4 -5 2 -5 -4 -2 -6 4 -29 -3 -50 -14
l-39 -20 55 6 c30 3 65 6 78 5 12 0 22 5 22 11 0 6 7 3 17 -6 14 -14 14 -18 2
-26 -11 -7 -10 -9 5 -9 10 0 29 -11 42 -26 25 -26 31 -44 14 -44 -5 0 -10 3
-10 8 0 10 -52 33 -59 26 -3 -3 1 -9 9 -15 13 -8 13 -10 0 -19 -13 -9 -13 -11
0 -20 8 -6 27 -8 43 -6 15 3 27 1 27 -4 0 -10 -20 -14 -53 -12 -37 4 -62 -49
-36 -75 6 -6 18 -9 25 -6 17 6 48 -23 34 -32 -5 -3 -19 -1 -30 5 -16 9 -20 8
-20 -5 0 -12 -6 -10 -22 10 -59 70 -68 77 -83 71 -18 -7 -11 -26 9 -26 18 0
36 -44 25 -61 -7 -11 -9 -11 -9 4 0 12 -8 17 -30 17 -28 0 -30 -2 -30 -40 0
-33 3 -40 20 -40 11 0 20 -5 20 -11 0 -7 -8 -9 -22 -4 -31 9 -70 7 -82 -5 -15
-15 -36 -12 -36 5 0 11 11 15 40 15 22 0 40 5 40 10 0 6 -17 10 -38 10 -32 0
-41 5 -50 25 -16 35 -16 35 15 35 19 0 24 3 16 11 -6 6 -19 12 -29 13 -14 2
-21 15 -28 50 -4 26 -6 50 -2 53 8 8 36 -17 36 -33 0 -7 10 -15 23 -17 l22 -4
-22 -8 c-26 -8 -31 -25 -8 -25 16 0 65 46 65 60 0 6 -17 10 -39 10 -35 0 -39
3 -43 28 -4 26 -3 27 39 23 33 -2 43 0 43 12 0 9 -6 18 -12 20 -7 3 12 6 42 6
39 1 51 4 40 11 -26 17 -87 11 -132 -13 -67 -36 -80 -42 -128 -64 -25 -10
-115 -54 -201 -96 -86 -42 -181 -86 -211 -97 -97 -36 -94 -28 -80 -176 17
-181 16 -284 -2 -284 -8 0 -18 -9 -21 -20 -6 -20 -20 -26 -28 -12 -3 4 1 48 9
97 13 87 20 332 10 342 -3 3 -20 0 -38 -7 -89 -33 -113 -41 -180 -59 -137 -37
-230 -37 -388 0 -295 67 -458 113 -555 154 -108 46 -251 86 -350 100 -27 3
-63 10 -80 15 -16 5 -113 26 -215 45 -234 46 -647 149 -855 214 -148 46 -162
49 -183 35 -33 -22 -100 -92 -132 -139 -61 -90 -142 -299 -161 -415 -11 -71 0
-90 50 -90 16 0 32 -4 35 -9 3 -4 24 -11 47 -15 44 -7 99 -32 112 -50 5 -8 10
-6 17 4 8 13 10 12 10 -2 0 -10 4 -18 9 -18 5 0 12 8 14 18 7 27 8 -80 1 -132
-6 -38 -10 -46 -23 -40 -9 3 -25 7 -36 8 -11 0 -25 12 -31 25 -9 17 -30 30
-66 41 -58 19 -138 58 -151 74 -5 6 -6 -34 -4 -89 3 -76 9 -111 26 -147 29
-59 37 -66 151 -118 52 -24 109 -54 127 -67 17 -13 41 -23 53 -23 18 0 21 4
16 23 -16 62 -17 207 -1 307 9 58 20 146 25 197 8 90 34 193 49 193 4 0 5 -40
3 -88 -4 -79 -2 -95 21 -141 26 -55 23 -67 -16 -52 -20 8 -27 6 -32 -7 -13
-32 -17 -287 -6 -394 21 -213 84 -293 276 -351 122 -38 228 -68 330 -96 61
-16 130 -37 155 -46 25 -9 86 -28 135 -40 50 -13 119 -34 155 -46 93 -32 343
-33 473 -1 48 12 100 22 114 22 25 0 26 0 8 20 -29 32 -9 36 30 6 22 -17 57
-31 93 -37 31 -5 98 -17 147 -26 146 -27 184 -24 243 17 60 42 135 132 177
214 23 44 64 90 169 189 149 141 165 165 187 275 6 34 15 64 18 67 7 4 194
-43 336 -85 283 -82 365 -80 365 8 0 18 5 32 10 32 6 0 10 -4 10 -10 0 -5 15
-10 33 -11 31 0 31 -1 7 -10 -20 -8 -22 -12 -10 -19 24 -16 40 -11 40 10 0 25
35 26 245 5 334 -34 981 -36 1375 -6 674 53 1247 169 1735 353 153 58 239 103
316 167 31 25 74 60 95 77 22 18 61 50 89 73 27 22 54 41 59 41 5 0 31 -14 58
-31 27 -18 77 -40 111 -50 34 -10 91 -26 127 -37 82 -24 171 -37 150 -22 -11
8 19 9 105 3 219 -15 368 -8 487 21 110 26 192 61 240 101 16 14 35 21 47 18
10 -3 28 0 40 6 34 19 27 -13 -11 -48 -107 -100 -332 -165 -600 -174 -54 -2
-100 -6 -104 -10 -4 -4 0 -7 9 -7 15 0 16 -10 12 -72 -3 -40 -10 -90 -16 -110
-5 -21 -9 -59 -8 -85 1 -27 -1 -75 -6 -107 -7 -52 -6 -61 11 -74 17 -13 8 -14
-86 -9 -269 15 -538 120 -666 261 -67 74 -69 77 -85 122 l-14 39 -3 -42 c-6
-80 65 -179 184 -260 83 -56 125 -76 244 -116 130 -43 260 -67 413 -74 108 -5
143 -15 100 -26 -12 -3 -9 -5 8 -6 16 -1 29 5 33 15 6 16 28 16 26 -1 0 -6 16
-12 37 -15 26 -3 39 -11 41 -22 4 -21 -24 -25 -31 -5 -4 9 -8 9 -15 -2 -12
-17 -100 -10 -112 8 -9 16 -41 -84 -34 -107 16 -50 70 -169 83 -186 9 -10 27
-23 41 -28 55 -21 527 35 578 68 22 14 23 21 18 72 -3 32 -14 91 -25 132 -10
41 -17 77 -14 80 10 10 33 -35 27 -53 -4 -12 -2 -17 4 -13 6 3 12 -4 14 -16 2
-13 4 7 4 45 0 37 -3 67 -8 67 -19 0 -6 74 25 132 27 54 32 74 32 133 0 65
-18 135 -34 135 -4 0 -15 -24 -24 -52 -19 -62 -42 -89 -117 -145 -94 -70 -203
-113 -322 -127 l-58 -7 0 128 c0 70 4 143 10 161 5 19 10 58 11 87 1 30 6 60
10 66 4 6 53 24 110 39 197 51 286 92 330 153 70 96 87 157 64 233 -17 58 -68
134 -90 134 -19 0 -21 63 -2 78 7 6 64 18 127 26 357 49 424 59 520 82 58 13
128 30 155 38 175 50 537 102 915 131 571 43 968 89 1335 155 489 89 889 175
1030 222 47 15 55 39 23 67 -13 11 -36 32 -53 46 -73 64 -142 84 -245 74z m17
-75 c-3 -3 -12 -4 -19 -1 -8 3 -5 6 6 6 11 1 17 -2 13 -5z m-8347 -513 c0 -12
-20 -25 -27 -18 -7 7 6 27 18 27 5 0 9 -4 9 -9z m3646 -56 c4 -14 4 -29 0 -32
-3 -4 -6 3 -6 13 0 11 -5 25 -12 32 -9 9 -9 12 0 12 6 0 14 -11 18 -25z m1709
5 c3 -5 12 -10 18 -10 7 0 6 4 -3 10 -18 12 -3 12 25 1 16 -7 10 -11 -35 -24
-30 -8 -62 -15 -70 -15 -8 0 -48 -10 -87 -21 -83 -24 -123 -28 -175 -17 -26 6
-38 5 -38 -3 0 -6 -8 -11 -17 -12 -16 0 -15 -2 2 -9 20 -9 -3 -8 -105 5 -25 3
-40 1 -40 -5 0 -7 -13 -9 -32 -6 -18 3 -54 8 -80 11 -57 7 -62 21 -10 28 20 2
80 12 132 20 52 9 120 17 152 19 31 2 54 6 52 9 -7 11 85 21 172 18 46 -2 86
0 90 4 11 10 42 9 49 -3z m-5760 -229 c-6 -5 -25 10 -25 20 0 5 6 4 14 -3 8
-7 12 -15 11 -17z m-95 -41 c0 -13 -28 -25 -38 -16 -3 4 0 11 8 16 20 13 30
12 30 0z m4473 5 c10 -4 13 -19 11 -52 -4 -50 5 -72 48 -122 16 -18 26 -37 21
-42 -10 -10 -278 -49 -336 -49 l-43 0 3 112 c2 61 5 113 7 115 2 2 61 12 132
22 71 10 132 19 136 20 3 0 13 -1 21 -4z m-4360 -45 c14 -14 30 -19 44 -15 13
3 23 1 23 -5 0 -5 -7 -10 -15 -10 -8 0 -15 -4 -15 -9 0 -11 36 -21 78 -21 17
0 32 -4 32 -9 0 -19 -39 -21 -80 -5 -31 12 -44 14 -53 5 -6 -6 -20 -11 -30
-11 -17 0 -19 -5 -14 -36 5 -27 1 -40 -14 -55 -29 -29 -49 -24 -49 11 0 27 -3
30 -32 30 -56 0 -80 11 -75 31 3 12 0 19 -9 19 -21 0 -17 17 9 35 21 15 22 14
28 -7 4 -19 12 -23 42 -23 35 0 37 -1 43 -42 5 -33 11 -43 25 -43 21 0 24 16
9 54 -6 17 -6 26 0 26 18 0 10 18 -10 23 -11 3 -20 10 -20 17 0 7 9 14 20 17
32 8 23 23 -14 23 -26 0 -35 -5 -39 -21 -6 -23 -30 -21 -35 3 -2 9 9 19 30 25
54 18 97 15 121 -7z m-263 -35 c-14 -17 -30 -20 -30 -5 0 6 7 10 15 10 8 0 15
5 15 12 0 6 3 8 6 5 4 -4 1 -13 -6 -22z m466 15 c20 0 24 -5 24 -30 0 -33 -19
-40 -40 -15 -7 8 -19 15 -26 15 -8 0 -14 9 -14 21 0 15 4 19 16 15 9 -3 27 -6
40 -6z m-118 -138 c34 -2 62 -8 62 -12 0 -16 -95 -16 -127 -1 -33 16 -47 39
-15 26 9 -5 45 -10 80 -13z m-40 -73 c17 -1 21 -3 10 -6 -13 -3 -18 -15 -18
-44 0 -21 -4 -39 -10 -39 -5 0 -10 18 -10 40 0 29 -4 40 -15 40 -11 0 -15 -12
-15 -45 0 -40 -2 -45 -22 -44 -13 0 -17 3 -10 6 6 2 12 20 12 39 0 39 18 66
38 59 8 -3 26 -6 40 -6z m-260 -33 c3 -12 -1 -17 -10 -14 -7 3 -15 13 -16 22
-3 12 1 17 10 14 7 -3 15 -13 16 -22z m97 4 c-3 -5 -13 -10 -21 -10 -8 0 -14
5 -14 10 0 6 9 10 21 10 11 0 17 -4 14 -10z m290 0 c4 -6 -8 -10 -29 -10 -20
0 -36 5 -36 10 0 6 13 10 29 10 17 0 33 -4 36 -10z m-341 -15 c3 -8 17 -15 32
-15 33 0 27 -21 -9 -31 -15 -4 -25 -4 -22 0 2 5 -2 17 -10 27 -8 10 -15 22
-15 27 0 13 18 7 24 -8z m84 -63 c2 -7 -3 -12 -12 -12 -9 0 -16 7 -16 16 0 17
22 14 28 -4z m-65 -19 c-7 -2 -19 -2 -25 0 -7 3 -2 5 12 5 14 0 19 -2 13 -5z
m-123 -33 l20 -20 -40 0 c-39 0 -39 1 -22 19 22 24 19 24 42 1z m-3437 -300
c11 -14 13 -20 4 -21 -6 0 51 -18 128 -39 77 -22 172 -48 210 -60 39 -11 102
-29 140 -40 39 -10 129 -36 200 -58 72 -21 136 -37 143 -34 7 2 12 -1 12 -6 0
-5 10 -12 23 -15 12 -2 31 -8 41 -12 34 -14 7 14 -27 29 -18 8 -27 15 -21 15
44 3 154 -79 154 -115 0 -14 6 -24 15 -24 9 0 14 -10 14 -27 -1 -16 6 -62 15
-103 19 -89 18 -80 6 -80 -5 0 -10 6 -10 14 0 8 -4 17 -8 20 -5 3 -8 -40 -8
-94 1 -90 2 -96 13 -67 11 28 12 22 9 -59 -3 -83 -6 -95 -32 -129 -26 -35 -30
-37 -70 -31 -24 3 -58 12 -76 21 -20 9 -23 12 -8 8 48 -14 120 -6 135 13 23
30 17 49 -6 20 -25 -32 -79 -35 -165 -7 -33 10 -75 22 -94 25 -19 4 -44 11
-55 16 -11 5 -94 30 -185 56 -147 41 -376 109 -453 134 -21 7 -26 6 -21 -3 4
-7 -8 3 -25 22 -18 19 -41 55 -51 80 -10 25 -20 42 -21 36 -1 -5 -5 15 -9 45
-4 30 -3 60 2 67 19 25 36 0 47 -72 7 -42 21 -84 31 -98 22 -28 88 -61 140
-71 19 -4 44 -11 55 -16 11 -5 36 -13 55 -18 19 -6 76 -22 125 -37 403 -120
527 -155 553 -155 35 0 49 20 61 85 31 165 -8 410 -72 456 -12 9 -110 41 -217
72 -107 31 -305 88 -439 127 -140 41 -251 68 -263 64 -24 -7 -37 -41 -40 -99
-2 -55 -10 -69 -35 -61 -39 13 -25 159 20 217 26 34 37 35 60 9z m227 -50 c0
-5 -2 -10 -4 -10 -3 0 -8 5 -11 10 -3 6 -1 10 4 10 6 0 11 -4 11 -10z m90 -30
c0 -5 -7 -7 -15 -4 -8 4 -15 8 -15 10 0 2 7 4 15 4 8 0 15 -4 15 -10z m-277
-7 c-7 -2 -21 -2 -30 0 -10 3 -4 5 12 5 17 0 24 -2 18 -5z m504 -59 c-3 -3
-12 -4 -19 -1 -8 3 -5 6 6 6 11 1 17 -2 13 -5z m-252 -14 c13 -6 15 -9 5 -9
-8 0 -22 4 -30 9 -18 12 -2 12 25 0z m448 -37 c14 -8 7 -23 -10 -23 -16 0 -16
2 -3 11 11 7 6 8 -19 4 -22 -5 -31 -4 -27 3 3 6 -2 13 -11 16 -10 2 0 2 22 -1
22 -3 43 -8 48 -10z m-223 -26 c8 -3 65 -20 125 -37 61 -18 119 -34 129 -38
35 -10 102 -92 137 -167 18 -40 23 -68 23 -137 1 -80 -1 -89 -29 -129 -43 -62
-87 -85 -134 -72 -20 6 -88 25 -151 42 -63 18 -117 35 -120 39 -3 4 -17 13
-32 21 -15 7 -32 27 -39 42 -6 16 -15 29 -19 29 -5 0 -21 25 -35 57 -39 82
-46 191 -15 255 20 43 64 87 100 100 16 6 36 5 60 -5z m290 -7 c13 -9 13 -10
0 -10 -8 0 -22 5 -30 10 -13 9 -13 10 0 10 8 0 22 -5 30 -10z m-742 -79 c3 -8
9 -8 23 0 15 8 21 6 26 -7 4 -10 2 -19 -5 -22 -17 -5 -15 -22 4 -44 16 -16 16
-18 0 -24 -9 -3 -23 -1 -31 6 -8 6 -19 9 -25 5 -5 -3 -16 -3 -22 2 -7 4 -15 8
-18 9 -23 6 -70 30 -70 36 0 4 12 18 27 32 28 26 83 31 91 7z m82 -31 c0 -5
-5 -10 -11 -10 -5 0 -7 5 -4 10 3 6 8 10 11 10 2 0 4 -4 4 -10z m-110 -84 c0
-2 -7 -7 -16 -10 -8 -3 -12 -2 -9 4 6 10 25 14 25 6z m1415 -45 c17 -1 75 -14
130 -28 55 -13 107 -26 115 -28 8 -2 17 -4 20 -5 3 -1 9 -2 14 -1 9 2 5 -154
-5 -163 -3 -3 -28 1 -55 9 -27 8 -67 15 -90 15 -22 0 -44 3 -48 8 -4 4 -24 12
-44 17 -32 9 -37 15 -40 43 -3 28 -6 31 -18 22 -23 -20 -44 -4 -44 33 0 56 11
98 24 89 6 -4 25 -9 41 -11z m-1342 -218 c-7 -2 -19 -2 -25 0 -7 3 -2 5 12 5
14 0 19 -2 13 -5z m77 -23 c8 -5 11 -10 5 -10 -5 0 -17 5 -25 10 -8 5 -10 10
-5 10 6 0 17 -5 25 -10z m240 -70 c8 -5 11 -10 5 -10 -5 0 -17 5 -25 10 -8 5
-10 10 -5 10 6 0 17 -5 25 -10z m87 -26 c-3 -3 -12 -4 -19 -1 -8 3 -5 6 6 6
11 1 17 -2 13 -5z"/>
<path d="M18376 10851 c-18 -7 -18 -8 -2 -14 16 -6 56 7 56 18 0 7 -32 5 -54
-4z"/>
<path d="M18407 10829 c-11 -7 -37 -8 -63 -4 -26 3 -44 2 -44 -3 0 -15 71 -21
118 -9 23 6 42 15 42 19 0 11 -32 9 -53 -3z"/>
<path d="M17010 10495 c-20 -24 -6 -28 15 -5 10 11 13 20 8 20 -6 0 -16 -7
-23 -15z"/>
<path d="M17150 10438 c-26 -13 -30 -18 -14 -18 20 0 63 25 54 32 -3 2 -21 -4
-40 -14z"/>
<path d="M12865 10530 c-15 -24 17 -38 45 -20 13 9 13 11 0 20 -19 13 -37 13
-45 0z"/>
<path d="M9116 9813 c-6 -14 -5 -15 5 -6 7 7 10 15 7 18 -3 3 -9 -2 -12 -12z"/>
<path d="M21875 11485 c17 -13 35 -24 40 -24 6 0 -3 11 -20 24 -16 14 -34 25
-40 25 -5 0 4 -11 20 -25z"/>
<path d="M3611 11454 c0 -11 3 -14 6 -6 3 7 2 16 -1 19 -3 4 -6 -2 -5 -13z"/>
<path d="M21983 11409 c26 -18 50 -30 52 -27 7 7 -71 58 -87 58 -7 0 9 -14 35
-31z"/>
<path d="M22030 11416 c0 -2 8 -10 18 -17 15 -13 16 -12 3 4 -13 16 -21 21
-21 13z"/>
<path d="M3620 11376 c0 -9 5 -16 10 -16 6 0 10 4 10 9 0 6 -4 13 -10 16 -5 3
-10 -1 -10 -9z"/>
<path d="M22090 11336 c46 -27 62 -32 98 -28 23 2 42 8 42 13 0 12 -22 11 -54
-1 -14 -5 -28 -5 -31 -1 -5 9 -90 51 -102 51 -4 0 17 -15 47 -34z"/>
<path d="M22150 11341 c0 -4 11 -6 25 -3 14 2 25 6 25 8 0 2 -11 4 -25 4 -14
0 -25 -4 -25 -9z"/>
<path d="M3611 11294 c0 -11 3 -14 6 -6 3 7 2 16 -1 19 -3 4 -6 -2 -5 -13z"/>
<path d="M3647 11211 c-4 -17 -3 -21 5 -13 5 5 8 16 6 23 -3 8 -7 3 -11 -10z"/>
<path d="M13476 11085 c-18 -13 -17 -14 12 -12 18 1 31 6 29 11 -5 16 -21 16
-41 1z"/>
<path d="M13668 11043 c7 -3 16 -2 19 1 4 3 -2 6 -13 5 -11 0 -14 -3 -6 -6z"/>
<path d="M13070 11026 c0 -13 20 -26 41 -26 5 0 9 9 9 20 0 15 -7 20 -25 20
-15 0 -25 -6 -25 -14z"/>
<path d="M13208 11033 c6 -2 18 -2 25 0 6 3 1 5 -13 5 -14 0 -19 -2 -12 -5z"/>
<path d="M13410 10990 c-8 -5 -12 -12 -9 -15 8 -8 39 5 39 16 0 11 -11 11 -30
-1z"/>
<path d="M3692 10960 c0 -19 2 -27 5 -17 2 9 2 25 0 35 -3 9 -5 1 -5 -18z"/>
<path d="M13840 10963 c0 -5 -26 -35 -56 -68 -294 -314 -305 -328 -329 -395
-25 -71 -18 -79 27 -30 104 112 160 174 278 310 36 41 67 77 70 80 73 76 76
81 56 96 -21 15 -46 19 -46 7z"/>
<path d="M12880 10950 c0 -5 6 -10 14 -10 8 0 18 5 21 10 3 6 -3 10 -14 10
-12 0 -21 -4 -21 -10z"/>
<path d="M14641 10848 c0 -54 5 -98 10 -98 5 0 9 24 9 53 0 29 4 57 9 63 5 5
1 23 -10 44 l-19 35 1 -97z"/>
<path d="M12940 10920 c0 -5 5 -10 10 -10 6 0 10 5 10 10 0 6 -4 10 -10 10 -5
0 -10 -4 -10 -10z"/>
<path d="M3702 10900 c0 -14 2 -19 5 -12 2 6 2 18 0 25 -3 6 -5 1 -5 -13z"/>
<path d="M12880 10886 c0 -9 7 -12 20 -9 11 3 17 9 14 14 -8 14 -34 10 -34 -5z"/>
<path d="M13243 10873 c-40 -4 -43 -6 -43 -34 0 -27 2 -29 40 -29 33 0 40 3
40 20 0 17 7 20 40 20 29 0 40 4 40 15 0 15 -19 17 -117 8z"/>
<path d="M13420 10871 c0 -6 5 -13 10 -16 6 -3 10 1 10 9 0 9 -4 16 -10 16 -5
0 -10 -4 -10 -9z"/>
<path d="M14690 10840 c0 -8 9 -28 20 -45 26 -39 26 -26 0 22 -11 21 -20 31
-20 23z"/>
<path d="M15078 10833 c6 -2 18 -2 25 0 6 3 1 5 -13 5 -14 0 -19 -2 -12 -5z"/>
<path d="M13360 10816 c0 -9 5 -16 10 -16 6 0 10 4 10 9 0 6 -4 13 -10 16 -5
3 -10 -1 -10 -9z"/>
<path d="M14830 10815 c-8 -9 -8 -15 -2 -15 12 0 26 19 19 26 -2 2 -10 -2 -17
-11z"/>
<path d="M15028 10823 c7 -3 16 -2 19 1 4 3 -2 6 -13 5 -11 0 -14 -3 -6 -6z"/>
<path d="M11413 10797 c-3 -5 -2 -11 2 -15 4 -4 10 -2 12 4 2 6 14 9 27 7 14
-3 31 -1 39 4 10 5 0 8 -30 8 -25 0 -47 -4 -50 -8z"/>
<path d="M12800 10784 c0 -8 5 -12 10 -9 6 4 8 11 5 16 -9 14 -15 11 -15 -7z"/>
<path d="M13210 10760 c0 -33 3 -40 20 -40 17 0 20 7 20 40 0 33 -3 40 -20 40
-17 0 -20 -7 -20 -40z"/>
<path d="M11365 10780 c4 -6 11 -8 16 -5 14 9 11 15 -7 15 -8 0 -12 -5 -9 -10z"/>
<path d="M11217 10760 c-9 -11 -13 -20 -8 -20 11 0 35 29 29 35 -2 2 -12 -4
-21 -15z"/>
<path d="M11720 10773 c-52 -4 -155 -22 -355 -63 -259 -54 -288 -61 -367 -91
-44 -17 -88 -29 -98 -26 -11 3 -27 -1 -37 -9 -21 -16 -63 -19 -63 -4 0 6 8 10
17 10 9 0 14 3 10 6 -11 11 -46 -7 -53 -29 -4 -12 -17 -29 -29 -39 -25 -20
-55 -122 -55 -188 0 -75 59 -107 280 -153 41 -9 116 -25 165 -36 144 -32 242
-41 315 -30 93 15 150 30 150 40 0 5 8 9 18 9 9 0 41 9 70 20 59 23 102 26
120 8 6 -6 15 -8 19 -4 5 4 0 13 -10 20 -22 17 -22 26 3 26 11 0 20 -4 20 -10
0 -5 5 -10 11 -10 6 0 9 7 5 15 -3 9 11 31 38 59 46 45 70 88 81 143 7 35 -11
212 -26 251 -23 59 -115 94 -229 85z"/>
<path d="M8721 10754 c0 -11 3 -14 6 -6 3 7 2 16 -1 19 -3 4 -6 -2 -5 -13z"/>
<path d="M10995 10710 c-3 -5 3 -10 15 -10 12 0 18 5 15 10 -3 6 -10 10 -15
10 -5 0 -12 -4 -15 -10z"/>
<path d="M13260 10710 c0 -5 5 -10 10 -10 6 0 10 5 10 10 0 6 -4 10 -10 10 -5
0 -10 -4 -10 -10z"/>
<path d="M13448 10713 c7 -3 16 -2 19 1 4 3 -2 6 -13 5 -11 0 -14 -3 -6 -6z"/>
<path d="M10957 10696 c-4 -10 -1 -13 9 -9 7 3 14 9 14 14 0 14 -17 10 -23 -5z"/>
<path d="M13200 10697 c0 -23 37 -59 56 -55 11 2 5 13 -20 37 -27 26 -36 31
-36 18z"/>
<path d="M10895 10690 c-8 -13 15 -24 27 -12 6 6 4 11 -6 15 -8 3 -18 2 -21
-3z"/>
<path d="M10790 10680 c-8 -5 -11 -12 -7 -17 5 -4 11 -3 15 3 4 6 14 14 22 17
13 5 13 5 0 6 -8 0 -22 -3 -30 -9z"/>
<path d="M10858 10673 c7 -3 16 -2 19 1 4 3 -2 6 -13 5 -11 0 -14 -3 -6 -6z"/>
<path d="M10735 10650 c3 -5 10 -10 16 -10 5 0 9 5 9 10 0 6 -7 10 -16 10 -8
0 -12 -4 -9 -10z"/>
<path d="M13144 10609 c-10 -17 13 -36 27 -22 12 12 4 33 -11 33 -5 0 -12 -5
-16 -11z"/>
<path d="M13246 10594 c-10 -26 -7 -34 14 -34 12 0 20 -7 20 -17 0 -14 2 -15
13 -4 10 11 10 14 0 18 -7 3 -13 16 -13 29 0 27 -24 33 -34 8z"/>
<path d="M13380 10596 c0 -22 17 -28 24 -10 9 22 8 24 -9 24 -8 0 -15 -6 -15
-14z"/>
<path d="M10698 10573 c12 -2 30 -2 40 0 9 3 -1 5 -23 4 -22 0 -30 -2 -17 -4z"/>
<path d="M13360 10540 c0 -19 3 -21 12 -12 9 9 9 15 0 24 -9 9 -12 7 -12 -12z"/>
<path d="M3771 10453 c0 -30 -6 -53 -12 -53 -5 0 -7 -5 -4 -10 4 -6 12 -4 22
5 12 13 13 24 5 63 l-10 47 -1 -52z"/>
<path d="M12513 10413 c9 -2 25 -2 35 0 9 3 1 5 -18 5 -19 0 -27 -2 -17 -5z"/>
<path d="M12010 10385 c12 -15 30 -12 30 6 0 5 -10 9 -21 9 -18 0 -19 -2 -9
-15z"/>
<path d="M12480 10385 c0 -11 11 -15 40 -15 29 0 40 4 40 15 0 11 -11 15 -40
15 -29 0 -40 -4 -40 -15z"/>
<path d="M3775 10379 c-5 -5 -19 -16 -29 -23 -18 -12 -18 -13 5 -10 13 1 30 3
37 3 6 1 12 10 12 21 0 22 -9 25 -25 9z"/>
<path d="M12005 10330 c-3 -5 -1 -10 4 -10 6 0 11 5 11 10 0 6 -2 10 -4 10 -3
0 -8 -4 -11 -10z"/>
<path d="M12580 10310 c0 -5 4 -10 9 -10 6 0 13 5 16 10 3 6 -1 10 -9 10 -9 0
-16 -4 -16 -10z"/>
<path d="M13128 10313 c7 -3 16 -2 19 1 4 3 -2 6 -13 5 -11 0 -14 -3 -6 -6z"/>
<path d="M11903 10261 c-19 -16 -21 -21 -8 -31 17 -14 66 -1 73 20 3 9 -3 11
-22 8 -20 -4 -26 -2 -22 8 7 18 6 17 -21 -5z"/>
<path d="M12450 10266 c0 -19 20 -25 48 -15 30 11 19 29 -19 29 -18 0 -29 -5
-29 -14z"/>
<path d="M11856 10204 c-11 -7 -18 -16 -15 -18 2 -2 13 2 23 10 11 7 18 16 15
18 -2 2 -13 -2 -23 -10z"/>
<path d="M11757 10170 c4 -16 0 -20 -18 -21 -28 -1 -101 -27 -80 -28 16 -1 77
17 103 30 10 5 26 9 35 9 16 1 16 2 -1 15 -28 21 -45 19 -39 -5z"/>
<path d="M11677 10159 c7 -7 15 -10 18 -7 3 3 -2 9 -12 12 -14 6 -15 5 -6 -5z"/>
<path d="M11490 10100 c0 -5 7 -10 15 -10 8 0 15 5 15 10 0 6 -7 10 -15 10 -8
0 -15 -4 -15 -10z"/>
<path d="M11530 10096 c0 -8 -6 -17 -12 -20 -7 -3 -4 -5 7 -3 20 2 35 37 16
37 -6 0 -11 -6 -11 -14z"/>
<path d="M11398 10063 c7 -3 16 -2 19 1 4 3 -2 6 -13 5 -11 0 -14 -3 -6 -6z"/>
<path d="M11348 10053 c6 -2 18 -2 25 0 6 3 1 5 -13 5 -14 0 -19 -2 -12 -5z"/>
<path d="M17110 9479 c0 -5 5 -7 10 -4 6 3 10 8 10 11 0 2 -4 4 -10 4 -5 0
-10 -5 -10 -11z"/>
<path d="M17223 9463 c9 -2 25 -2 35 0 9 3 1 5 -18 5 -19 0 -27 -2 -17 -5z"/>
<path d="M17800 9139 c-11 -20 -12 -20 -32 -2 -19 16 -21 16 -15 1 3 -9 3 -19
-1 -21 -4 -2 -1 -2 5 -1 8 2 15 -12 19 -36 4 -22 12 -40 19 -40 7 0 15 -7 19
-15 3 -8 10 -15 16 -15 5 0 10 7 10 15 0 8 5 15 10 15 6 0 10 -18 10 -39 0
-37 -3 -40 -37 -52 l-38 -13 28 -10 c16 -6 27 -17 27 -28 0 -13 8 -18 25 -18
14 0 25 -4 25 -10 0 -5 -11 -17 -25 -26 -45 -29 -28 -64 31 -64 14 0 24 -6 24
-15 0 -12 -5 -12 -40 0 -39 14 -40 14 -40 -10 0 -18 6 -25 28 -28 l27 -4 -27
-2 c-26 -1 -28 -5 -28 -40 0 -37 -1 -39 -39 -45 -35 -5 -80 -36 -52 -36 6 0
11 -7 11 -15 0 -18 72 -34 78 -16 5 14 39 15 47 1 3 -5 -3 -10 -14 -10 -24 0
-121 -91 -103 -97 14 -5 17 -40 3 -45 -4 -1 -3 -45 4 -95 10 -84 10 -93 -5
-93 -9 0 -21 -12 -27 -27 l-10 -28 -8 29 c-4 16 -4 31 2 35 8 5 33 64 33 77 0
2 -7 4 -15 4 -8 0 -21 -13 -30 -29 -8 -17 -24 -36 -34 -43 -14 -10 -17 -18
-10 -28 7 -13 9 -12 9 3 0 9 6 17 13 17 9 0 11 -12 9 -40 -2 -22 -8 -40 -13
-40 -5 0 -9 -18 -9 -40 0 -22 5 -40 10 -40 6 0 10 18 10 40 0 22 4 40 9 40 10
0 21 -97 21 -181 0 -47 3 -59 16 -59 25 0 6 -18 -26 -25 -39 -9 -38 -20 3 -31
22 -7 33 -17 35 -32 4 -25 -15 -30 -24 -7 -4 9 -19 15 -40 15 -32 0 -34 -2
-34 -32 0 -18 -3 -43 -6 -55 -5 -17 -2 -23 10 -23 10 0 16 -9 16 -24 0 -13 5
-26 12 -28 9 -3 9 -6 0 -12 -7 -4 -12 -2 -12 3 0 6 -7 11 -15 11 -11 0 -15
-11 -15 -40 0 -36 -2 -40 -25 -40 -22 0 -25 -4 -25 -40 0 -29 -4 -40 -15 -40
-8 0 -15 -4 -15 -9 0 -5 7 -11 15 -15 9 -3 15 0 15 9 0 26 37 17 44 -10 4 -14
13 -25 21 -25 8 0 15 -7 15 -15 0 -8 -7 -15 -15 -15 -11 0 -15 -11 -15 -40 0
-36 -2 -40 -25 -40 -22 0 -25 -4 -25 -40 0 -22 5 -40 10 -40 6 0 10 -18 10
-40 0 -22 -4 -40 -9 -40 -5 0 -12 -54 -16 -120 -6 -92 -10 -120 -21 -120 -10
0 -14 15 -14 54 0 30 -4 58 -10 61 -12 7 -13 -3 -10 -68 1 -27 -1 -84 -5 -128
-6 -68 -10 -79 -26 -79 -15 0 -19 -7 -19 -40 0 -29 4 -40 15 -40 11 0 15 -11
15 -40 0 -24 5 -40 12 -40 9 0 9 -3 0 -12 -7 -7 -12 -25 -12 -40 0 -15 -4 -28
-10 -28 -5 0 -10 -7 -10 -15 0 -8 5 -15 10 -15 6 0 10 -18 10 -41 0 -28 -4
-39 -12 -36 -7 2 -12 16 -10 31 2 20 -2 26 -18 26 -11 0 -20 -7 -20 -15 0 -8
-4 -15 -10 -15 -16 0 -12 -47 5 -54 8 -3 15 -10 15 -16 0 -5 -7 -10 -15 -10
-23 0 -21 -80 3 -81 24 -2 -62 -19 -125 -26 -29 -3 -53 -9 -53 -15 0 -20 308
31 361 60 44 23 91 77 106 121 7 20 17 97 23 171 5 74 21 259 35 410 14 151
36 410 50 575 14 165 29 343 35 395 5 52 12 136 15 187 3 51 7 98 10 105 2 7
6 49 9 93 3 44 15 184 26 312 20 235 19 298 -6 289 -16 -6 -29 52 -20 90 10
39 -26 74 -75 74 -29 0 -41 -5 -49 -21z m20 -28 c0 -6 -4 -13 -10 -16 -5 -3
-10 1 -10 9 0 9 5 16 10 16 6 0 10 -4 10 -9z m122 -257 c-6 -35 -12 -29 -12
14 0 23 3 32 9 24 4 -7 6 -24 3 -38z m-22 -225 c0 -14 -36 -11 -49 4 -8 11 -5
13 19 9 17 -2 30 -8 30 -13z m-80 -29 c0 -5 -7 -10 -15 -10 -8 0 -15 5 -15 10
0 6 7 10 15 10 8 0 15 -4 15 -10z m-35 -130 c-3 -5 -10 -10 -16 -10 -5 0 -9 5
-9 10 0 6 7 10 16 10 8 0 12 -4 9 -10z m4 -64 c7 -8 11 -32 8 -53 l-4 -38 -1
43 c-2 30 -6 42 -17 42 -8 0 -15 5 -15 10 0 15 16 12 29 -4z m-31 -243 c-13
-3 -18 -16 -20 -46 -1 -39 -2 -39 -5 -9 -6 44 2 62 24 61 17 -1 17 -2 1 -6z
m79 -75 c-3 -7 -5 -2 -5 12 0 14 2 19 5 13 2 -7 2 -19 0 -25z m-57 -18 c0 -5
-2 -10 -4 -10 -3 0 -8 5 -11 10 -3 6 -1 10 4 10 6 0 11 -4 11 -10z m-20 -60
c0 -5 -4 -10 -10 -10 -5 0 -10 5 -10 10 0 6 5 10 10 10 6 0 10 -4 10 -10z m70
-177 c-1 -23 -18 -35 -36 -24 -18 10 -18 10 4 11 12 0 22 5 22 10 0 6 2 10 5
10 3 0 5 -3 5 -7z m-142 -61 c2 -7 -3 -12 -12 -12 -9 0 -16 7 -16 16 0 17 22
14 28 -4z m129 -8 c-3 -3 -12 -4 -19 -1 -8 3 -5 6 6 6 11 1 17 -2 13 -5z m-73
-300 c9 -24 7 -27 -9 -10 -17 17 -19 26 -6 26 5 0 12 -7 15 -16z m-134 -544
c0 -5 -7 -10 -15 -10 -8 0 -15 5 -15 10 0 6 7 10 15 10 8 0 15 -4 15 -10z
m-53 -102 c-2 -13 -4 -3 -4 22 0 25 2 35 4 23 2 -13 2 -33 0 -45z m-42 -408
c3 -5 1 -10 -4 -10 -6 0 -11 5 -11 10 0 6 2 10 4 10 3 0 8 -4 11 -10z m150
-20 c-9 -15 -45 -32 -45 -22 0 5 10 14 23 20 29 14 29 14 22 2z"/>
<path d="M17700 9126 c0 -2 7 -6 15 -10 8 -3 15 -1 15 4 0 6 -7 10 -15 10 -8
0 -15 -2 -15 -4z"/>
<path d="M17751 8894 c0 -11 3 -14 6 -6 3 7 2 16 -1 19 -3 4 -6 -2 -5 -13z"/>
<path d="M17680 8629 c0 -5 5 -7 10 -4 6 3 10 8 10 11 0 2 -4 4 -10 4 -5 0
-10 -5 -10 -11z"/>
<path d="M17705 8570 c-3 -5 1 -10 10 -10 9 0 13 5 10 10 -3 6 -8 10 -10 10
-2 0 -7 -4 -10 -10z"/>
<path d="M17698 8513 c12 -2 32 -2 45 0 12 2 2 4 -23 4 -25 0 -35 -2 -22 -4z"/>
<path d="M17600 7800 c0 -22 5 -40 10 -40 6 0 10 18 10 40 0 22 -4 40 -10 40
-5 0 -10 -18 -10 -40z"/>
<path d="M17600 7695 c0 -8 7 -15 15 -15 8 0 15 7 15 15 0 8 -7 15 -15 15 -8
0 -15 -7 -15 -15z"/>
<path d="M17520 7450 c0 -5 5 -10 11 -10 5 0 7 5 4 10 -3 6 -8 10 -11 10 -2 0
-4 -4 -4 -10z"/>
<path d="M17598 7443 c7 -3 16 -2 19 1 4 3 -2 6 -13 5 -11 0 -14 -3 -6 -6z"/>
<path d="M17528 7273 c7 -3 16 -2 19 1 4 3 -2 6 -13 5 -11 0 -14 -3 -6 -6z"/>
<path d="M17572 7248 c6 -18 28 -21 28 -4 0 9 -7 16 -16 16 -9 0 -14 -5 -12
-12z"/>
<path d="M17522 7100 c0 -14 2 -19 5 -12 2 6 2 18 0 25 -3 6 -5 1 -5 -13z"/>
<path d="M17560 7106 c0 -22 17 -28 24 -10 9 22 8 24 -9 24 -8 0 -15 -6 -15
-14z"/>
<path d="M17490 6908 c0 -18 5 -28 15 -28 19 0 19 11 0 36 -14 18 -14 18 -15
-8z"/>
<path d="M17441 6894 c0 -11 3 -14 6 -6 3 7 2 16 -1 19 -3 4 -6 -2 -5 -13z"/>
<path d="M17440 6600 c0 -33 -3 -40 -20 -40 -13 0 -18 -5 -14 -15 5 -11 10
-13 19 -5 9 8 14 7 18 -2 8 -24 20 1 25 52 4 41 2 50 -12 50 -12 0 -16 -10
-16 -40z"/>
<path d="M17185 6270 c-16 -7 -13 -9 17 -9 20 -1 40 4 43 9 7 12 -32 12 -60 0z"/>
<path d="M17128 6263 c7 -3 16 -2 19 1 4 3 -2 6 -13 5 -11 0 -14 -3 -6 -6z"/>
</g>
</svg>
